<?xml version="1.0" standalone="no"?>
<!DOCTYPE svg PUBLIC "-//W3C//DTD SVG 1.1//EN" "http://www.w3.org/Graphics/SVG/1.1/DTD/svg11.dtd" >
<svg>
<metadata>
Created by FontForge 20110222 at Wed Jun  4 23:17:58 2014
 By deploy user
_null_name_substitute_
</metadata>
<defs>
<font id="VenusGlyphs-Regular" horiz-adv-x="600" >
  <font-face
    font-family="Venus Glyphs"
    font-weight="400"
    font-stretch="normal"
    units-per-em="1000"
    panose-1="0 0 5 0 0 0 0 0 0 0"
    ascent="800"
    descent="-200"
    cap-height="599"
    bbox="-4.09302 -2.64286 602.2 666"
    underline-thickness="50"
    underline-position="-50"
    unicode-range="U+0020-2265"
  />
<missing-glyph
d="M33 0v666h265v-666h-265zM66 33h199v600h-199v-600z" />
    <glyph glyph-name=".notdef"
d="M33 0v666h265v-666h-265zM66 33h199v600h-199v-600z" />
    <glyph glyph-name=".null" horiz-adv-x="0"
 />
    <glyph glyph-name="nonmarkingreturn"
 />
    <glyph glyph-name="space" unicode=" "
 />
    <glyph glyph-name="exclam" unicode="!"
d="M587 501h-574q-8 -2 -11 -8q-2 -2 -2 -8v-371q0 -8 5 -11q1 -1 10 -4h570q6 2 10 4q5 3 5 11v372q0 13 -13 15zM29 472h542v-83h-542v83zM29 310h542v-182h-542v182z" />
    <glyph glyph-name="numbersign" unicode="#"
d="M492 572h-386q-7 0 -11 -1q-30 0 -57 -21q-27 -23 -35 -56q-3 -10 -3 -30v-244q0 -7 1 -11q2 -42 36 -72q27 -22 61 -22h112v-68q0 -7 1 -10q5 -8 12 -8h1q1 0 10 3q30 14 89 41.5t89 41.5h15h75q31 0 58 20q27 21 36 52q4 13 4 33v249q0 15 -3 28q-8 26 -24 43
q-22 24 -55 30q-8 2 -26 2zM50 523q22 20 50 20h389q14 0 21 -1q30 -3 48 -29q13 -17 13 -42v-246q0 -17 -1 -21q-3 -29 -29 -47q-18 -13 -38 -13h-93q-1 0 -3.5 -1t-3.5 -1q-132 -61 -161 -74l-4 -3v7v56q0 6 -1 8q-5 9 -13 7q-42 1 -126 1q-32 0 -53 26q-12 16 -15 31
q-1 6 -1 18v243v17q3 24 21 44z" />
    <glyph glyph-name="dollar" unicode="$"
d="M602 298v8q-2 48 -14 85q-13 44 -41 84q-35 50 -83 80q-54 35 -120 44q-48 7 -98 -2q-65 -12 -118 -50q-51 -36 -85 -93q-32 -52 -40 -121q-8 -75 22 -148q25 -57 68 -98q39 -39 92 -61q85 -35 167 -19q69 11 123 50q50 35 82 87q35 57 43 124q2 20 2 30zM283 573
q79 5 145 -30q55 -29 92 -80q33 -43 45 -96q22 -84 -11 -165q-24 -62 -76 -106q-49 -43 -113 -58q-47 -11 -94 -5q-49 4 -95 29q-55 29 -92 78q-38 51 -50 115q-8 47 0 93q11 63 48 114q34 45 77 71q59 35 124 40zM432 404q-177 -171 -179 -173l-82 76q-9 7 -18 1
q-6 -4 -6 -13q2 -7 5 -9q13 -13 28.5 -27.5t34 -31.5t29.5 -27q10 -10 19 1q95 90 187 181q3 2 5 5q3 8 -1 15q-6 8 -14 6q-6 -2 -8 -4z" />
    <glyph glyph-name="percent" unicode="%"
d="M278 599q-68 -5 -129 -39q-47 -27 -82 -70q-42 -51 -59 -115q-14 -54 -8 -106q6 -70 46 -132q32 -50 80 -83q38 -27 86 -42q44 -14 87 -14q71 0 138 35q56 29 99 83q43 55 56 121q19 86 -14 170q-19 50 -55 92q-46 49 -103 74q-67 31 -142 26zM279 570q71 5 133 -24
q55 -25 96 -74q35 -43 51 -99q25 -89 -8 -172q-23 -61 -72 -104q-50 -45 -112 -60q-45 -12 -88 -8q-51 3 -99 26q-56 27 -95 77q-37 46 -52 109q-10 48 -4 91q8 65 42 115q34 53 91 87q52 31 117 36zM293 481q-4 -4 -4 -10v-178q0 -10 8 -13l125 -60q1 0 2.5 -1t3 -1.5
t3.5 -0.5q10 0 13 10q4 11 -5 16q-4 3 -8 4q-17 8 -36 17.5t-42 20.5t-35 17v170q0 11 -11 13q-8 3 -14 -4z" />
    <glyph glyph-name="ampersand" unicode="&#x26;"
d="M278 599q-25 -2 -45 -7q-63 -13 -118 -54q-50 -40 -77 -89q-33 -59 -39 -119q-3 -36 1 -67q7 -66 45 -126q34 -51 83 -85q40 -28 90 -42q42 -12 85 -12q72 2 137 37q59 33 98 85q42 56 54 123q17 86 -15 167q-19 47 -55 89q-43 47 -103 75q-68 30 -141 25zM279 570
q78 6 146 -31q55 -29 92 -80q32 -43 44 -94q22 -87 -12 -167q-24 -62 -77 -107q-51 -44 -119 -58q-45 -9 -91 -3q-54 8 -98 33q-54 30 -89 82q-39 54 -47 123q-5 49 5 91q13 62 56 114q41 48 97 74q45 20 93 23zM169 423q-3 -7 0 -15q1 -1 2 -2.5t2 -2.5q53 -51 104 -104
l-106 -106q-7 -7 -2 -16q2 -6 9 -8q8 -2 13 4q18 17 53.5 53t53.5 53l106 -106q7 -7 16 -3q8 5 8 13q0 6 -4 10l-106 106q17 18 53 53.5t53 53.5q8 7 2 17q-4 7 -14 7q-6 -2 -8 -4q-17 -18 -53 -53.5t-53 -53.5l-56 56l-46 46q-7 7 -10 8q-10 3 -17 -6z" />
    <glyph glyph-name="parenleft" unicode="("
d="M0 81v439q3 9 13 11h13h228h13q6 -2 7 -3q6 -6 5 -11v-47h306q4 1 10 -3q3 -3 5 -9v-374q-2 -8 -5 -11l-8 -3h-41h-493h-41q-9 2 -12 11zM571 401v41h-306q-5 0 -9.5 4t-4.5 10v46h-222v-101h542zM571 99v274h-542v-274h542z" />
    <glyph glyph-name="parenright" unicode=")"
d="M291 599q-7 -2 -9 -8q-1 -3 -1 -8v-421l-67 67q-28 28 -42 43q-1 1 -3.5 3t-4.5 3q-12 3 -17 -7q-5 -8 1 -16l6 -6l130 -130q12 -12 21 -1q91 91 137 136q9 11 0 20q-10 11 -20 1l-112 -112v423q-2 8 -7 12q-7 4 -12 1zM598 14v166q0 6 -4 9q-4 6 -13 4q-8 -2 -10 -9
q-1 -3 -1 -9v-146h-540v149q0 7 -2 10q-8 8 -15 5q-11 -2 -11 -13v-162q0 -7 1 -10q4 -9 13 -9h568q5 0 10 5q4 4 4 10z" />
    <glyph glyph-name="asterisk" unicode="*"
d="M140 81h351q3 1 9 1t9 1q32 6 56 30q21 20 29 47q12 39 -3 76q-16 39 -55 57q-15 7 -29 8q3 35 -17 63q-18 25 -49 36q-21 5 -37 4q-6 29 -24 53q-16 24 -44 41q-33 19 -72 21q-33 0 -59 -11q-54 -22 -79 -75q-13 -27 -13 -61q-30 -7 -57 -28q-22 -17 -36 -42
q-17 -28 -20 -58q-3 -41 12 -77q9 -23 30 -45q36 -33 83 -39q3 -1 8 -1t7 -1zM249 490q40 5 75 -18q45 -27 53 -79q2 -12 4 -14q6 -9 16 -6q31 9 58 -13q28 -23 23 -57q0 -4 -2 -12q-2 -12 8 -15q2 -2 9 -2q30 -2 51 -20q20 -17 25 -44q6 -22 -4 -47q-11 -30 -42 -45
q-11 -5 -24 -7q-7 -1 -21 -1h-329q-37 -1 -69 19q-27 18 -41 48q-17 40 -7 80q6 26 27 51q29 32 71 38q9 1 12 10v14q-1 29 13 56q22 45 70 59q16 4 24 5z" />
    <glyph glyph-name="plus" unicode="+"
d="M291 600q-36 -5 -54 -38q-13 -25 -5 -51q6 -23 24 -37q23 -16 48 -15q24 2 41 16q20 16 24 39q6 23 -5 46q-11 22 -33 33q-17 9 -40 7zM293 571q17 3 30 -6q12 -8 16 -20q6 -13 1 -28q-3 -12 -16 -22q-14 -10 -30 -7q-12 2 -21 9q-13 13 -14 25q-3 18 7 31q9 15 27 18z
M287 436q-19 -2 -30 -17q-11 -14 -11 -32v-334q0 -26 18 -41q15 -13 31 -13q10 0 15 2q14 1 26 10q23 18 23 42v335q0 20 -17 35q-17 14 -40 14q-10 0 -15 -1zM292 408h10q15 0 24 -10q4 -4 4 -11v-334q0 -7 -6 -15q-10 -10 -22 -9q-11 0 -13 1q-5 1 -11 9q-3 7 -3 15v333
q0 11 6 16q5 5 11 5z" />
    <glyph glyph-name="comma" unicode=","
d="M297 598q-6 -2 -9 -7q-31 -63 -131.5 -261t-154.5 -307q-6 -10 4 -18q4 -3 11 -3h565q6 0 9 1q10 3 10 14l-3 9q-47 93 -283 562q-3 5 -4 6q-6 6 -14 4zM301 552q261 -519 262 -521h-525q29 58 121 240t142 281zM290 383v-132q0 -6 0.5 -18.5t0.5 -19.5l3 -47h15
q1 5 1 15t1 15q1 29 1 87v100h-22zM296 130q-10 -2 -14 -9q-5 -8 -3 -18q3 -9 13 -14q4 -3 12 -1q12 2 16 12q9 16 -7 26q-9 7 -17 4z" />
    <glyph glyph-name="hyphen" unicode="-"
d="M285 599q-66 -3 -123 -33q-57 -29 -96 -79q-43 -52 -58 -118q-12 -51 -6 -103q8 -66 43 -125q31 -52 86 -90q36 -24 83 -39q45 -14 93 -12q38 0 79 11q64 17 112 59q48 40 74 99q32 71 27 148q-3 49 -19 91q-19 47 -55 90q-44 49 -100 74q-65 30 -140 27zM278 570
q77 6 146 -29q75 -38 115 -114q-1 -1 -2 -5t-2 -5q-6 -15 -13 -21q-7 -7 -17 -7q-1 1 -4 2t-4 2q-6 4 -17 15q-20 20 -29 31l-18 18q-14 12 -27 20t-27 8q-17 2 -30 -10q-8 -8 -10 -22q-2 -11 2 -31q3 -14 11 -40q0 -3 1.5 -10.5t2.5 -11.5q0 -8 -6 -20q-4 -7 -14.5 -22.5
t-14.5 -24.5q-8 -14 -6 -28q1 -17 15 -27q8 -7 20 -5q10 3 20 11q19 12 25 14q9 4 22 0q9 -1 17 -8q7 -4 7 -14q1 -7 -1 -32q-2 -23 1 -35t14 -20q10 -7 24 -4q6 2 16 9.5t13 9.5q6 4 9 3q8 0 20 -4q-32 -57 -83 -91q-56 -37 -129 -43q-54 -5 -103 10q-55 17 -98 54
q-48 41 -74 100q-16 38 -20 75q8 1 34 10q3 1 13.5 5t16.5 5q0 -5 -2 -15q0 -3 -3 -15.5t-4 -19.5q0 -14 3 -20q13 -29 28 -51q10 -16 20 -24q11 -10 24 -11q12 -1 25 7q12 7 15 22q3 11 3 34v24q0 5 3 8q2 3 10 7q4 3 13.5 7t13.5 6q17 9 24 19q6 10 8 26q0 20 -3 41
t-10 35q-5 14 -14 20q-4 4 -15 6q-16 4 -40 0q-21 -4 -28 -5q-5 -1 -9 0q-5 3 -8 8q-13 19 -16 21q-6 8 -17 11q-25 13 -46 14q34 54 88 88q58 35 121 39zM368 453q5 5 14 3q12 -3 22 -13q12 -9 23 -20q26 -31 42 -44q14 -12 23 -15q14 -7 32 0t30 27q8 -18 12 -57
q3 -48 -2 -87q-5 -32 -16 -57q-14 4 -22 5q-13 2 -19 0q-9 -2 -21 -12q-2 -1 -7 -4.5t-8 -5.5q-1 1 -3 6v17q2 22 2 33q0 12 -3 24q-7 15 -18 22q-18 10 -28 12q-18 3 -33 -1q-14 -4 -27 -14l-15 -10q-3 4 -3 9q1 6 11 23q16 22 19 29q10 16 11 30q1 11 -3 29q-2 8 -7 27
t-7 29q0 13 1 15zM59 411l3 3h11q13 -3 27 -9q3 -1 9 -5t9 -11q4 -6 14 -18q12 -12 28 -11l39 6q18 4 30 0l5 -5q4 -8 8 -26q5 -23 4 -40q0 -7 -1 -10t-7 -7q-5 -4 -25 -13q-16 -7 -26 -16q-8 -10 -10 -16q-3 -10 -3 -30v-28q0 -5 -3 -10q-3 -4 -8 -4q-2 0 -8 4q-7 5 -17 19
q-15 24 -22 42q-2 4 -2 7q0 5 2 15q7 31 6 40q0 14 -9 23q-6 6 -20 6q-9 -1 -29 -9q-26 -10 -35 -11q0 15 6 45q3 17 9 36q7 20 15 33z" />
    <glyph glyph-name="period" unicode="."
d="M601 408v6q-1 2 -1 7v7q-6 54 -42 93q-43 46 -105 51q-17 1 -39 -2q-42 -6 -78 -35l-20 -20l-256 -255q-11 -12 -23 -23q-23 -23 -30 -50q-11 -32 -3 -65q8 -29 25 -50q21 -23 47 -33q31 -13 68 -7q39 8 64 35l174 174q50 50 76 75q5 5 13 17q18 26 10 61q-8 27 -32 45
q-27 17 -57 11q-18 -3 -32 -14q-6 -4 -16 -14q-62 -63 -188 -189q-6 -4 -7 -9q-3 -9 5 -16q7 -7 16 -1q4 4 7 6q29 30 89 90q17 17 50.5 50t50.5 50q5 6 11 11q25 18 51 3q15 -8 21 -22q8 -17 3 -34q-3 -12 -13 -22l-243 -243l-9.5 -9.5t-12.5 -10.5q-24 -17 -50 -17
q-31 -2 -56 16q-23 16 -33 41q-14 34 0 67q4 11 13 24q3 4 9 10l8 8q186 186 279 278q19 21 48 32q32 13 64 8q30 -4 57 -22q44 -30 55 -82q7 -28 -1 -60q-6 -25 -23 -49q-10 -12 -16 -17l-155 -155l-72 -72q-6 -6 -7 -9q-3 -9 5 -16q8 -6 16 -1q3 2 7 6q36 36 107 107.5
t107 107.5q25 25 30 31q28 36 33 81v8t1 7z" />
    <glyph glyph-name="slash" unicode="/"
d="M601 537v3q-2 14 -8 23q-3 4 -10 11t-11 10q-11 6 -30 4q-11 -1 -35 -9q-29 -11 -54 -27q-20 -12 -30 -21q-7 -5 -18 -16l-185 -186q-7 -6 -21 -20q-26 -31 -17 -69q-33 10 -65 -1q-17 -7 -28 -15t-21 -20q-18 -21 -22 -45q-3 -10 -1 -25q2 -21 -3 -34q-3 -14 -16 -24
q-6 -6 -14 -9q-7 -3 -10 -9q-4 -9 2 -17q3 -5 15 -11q5 -2 15.5 -5t12.5 -4q13 -3 39 -7q16 -2 27 -2q39 2 62 10q21 7 42 23q13 10 18 17q20 22 25 51q6 27 -4 56q34 -5 60 15q10 7 20 19l6 6q1 1 3 2.5t3 2.5q2 1 4 5l176 176q10 8 15 16q11 14 29 44q15 29 21 47
q7 18 8 35zM518 553q23 7 30 7q9 0 11 -3q6 -4 10 -10q3 -2 3 -8q0 -8 -4 -24q-9 -24 -23 -50q-16 -27 -29 -42l-179 -179q-15 16 -46 47q-6 5 -17.5 17t-17.5 17l178 178q5 5 28 21q27 17 56 29zM222 291l14 14l81 -81q-8 -8 -13 -12q-10 -12 -28 -15q-25 -3 -41 13l-13 13
q-10 10 -13 26q-5 24 13 42zM99 196q25 22 59 19q31 -2 53 -25q23 -23 23 -58q-2 -32 -21 -51q-14 -14 -22 -19q-21 -14 -49 -19q-18 -3 -36 -3q-18 2 -27 4q-13 2 -37 8q14 12 19 20q9 15 12 33q2 11 0 33q-2 17 6 32q6 12 20 26z" />
    <glyph glyph-name="zero" unicode="0"
d="M-2 303v-11q0 -33 10 -73q18 -66 62 -117q41 -47 96 -74q51 -25 110 -30q50 -3 92 8q67 15 121 60q51 43 79 101q37 76 28 166q-8 56 -33 105q-30 55 -76 92q-52 43 -122 60q-93 22 -182 -16q-55 -22 -100 -67q-52 -53 -73 -123q-12 -39 -12 -81zM279 567q68 3 127 -22
q62 -27 104 -82q40 -49 53 -114q10 -55 -2 -111q-10 -41 -28 -73q-35 -60 -95 -99q-34 -20 -75 -31q-58 -14 -116 -3q-62 13 -109 48q-55 40 -84 102q-17 34 -23 71q-8 52 3 103q15 66 60 119q34 37 77 61q53 27 108 31zM223 415q-6 -2 -8 -9v-9v-206q0 -7 5 -10q6 -3 12 0
q36 21 103.5 58.5t87.5 48.5q8 4 6 12q-2 5 -10 9q-31 17 -92.5 51.5t-92.5 51.5q-6 4 -11 3z" />
    <glyph glyph-name="one" unicode="1"
d="M349 600h-99q-4 -1 -11 -1q-27 -3 -47 -25q-19 -22 -19 -50v-302q0 -31 22 -53t52 -22h106q32 0 55 25q14 16 19 40v21v286q0 15 -2 22q-6 26 -27 42q-15 13 -39 16q-7 0 -10 1zM242 573q3 1 8 1h94q10 0 15 -1q19 -3 31 -17q10 -12 12 -29v-15v-288q0 -14 -8 -27
q-13 -24 -42 -24h-103q-14 -1 -28 8q-23 15 -23 41v300q0 12 4 20q10 28 40 31zM470 179v92q-2 6 -4 8q-4 6 -12 4q-7 -1 -10 -9v-7v-80q0 -9 -1 -13q-1 -16 -14 -29q-14 -14 -33 -14h-191q-32 0 -45 30q-4 12 -4 18v91q0 6 -4 10q-5 5 -12 3q-9 -2 -9 -12v-85v-14
q3 -30 27 -49q20 -18 49 -18h80v-80h-49q-6 0 -9 -2q-9 -4 -6 -14q2 -9 11 -9h132q6 0 9 4q6 8 1 14q-4 7 -11 7h-52v80h7h73q19 0 34 8q25 11 36 38q5 12 7 28z" />
    <glyph glyph-name="two" unicode="2"
d="M278 599q-39 -3 -80 -17q-62 -22 -106 -65q-42 -38 -68 -94q-26 -58 -26 -120q-1 -71 31 -138q29 -57 76 -96q42 -35 94 -53q43 -15 90 -17q77 -2 145 33q58 29 98 80q43 53 58 119q20 87 -10 171q-18 50 -53 91q-43 51 -102 78q-70 33 -147 28zM279 570q74 5 139 -27
q57 -29 96 -79q32 -45 45 -92q24 -86 -7 -167q-21 -59 -69 -104t-109 -62q-44 -12 -86 -11q-52 1 -100 23q-52 22 -91 66q-42 45 -61 109q-10 36 -10 77q2 63 28 116q29 60 82 98q64 48 143 53zM130 313q-3 0 -7 -4q-7 -7 -2 -16q3 -8 13 -8h328q8 0 13 8q3 8 -2 15
q-5 6 -11 6h-329h-1z" />
    <glyph glyph-name="three" unicode="3"
d="M169 0h-22q-14 0 -28 12q-10 12 -10 24q-1 3 -1 10v514q0 17 13 30q12 10 26 10h306q16 0 28 -12q11 -11 11 -27v-522q0 -14 -10 -26q-12 -11 -28 -13h-20h-265zM468 39v522q0 6 -4.5 10.5t-10.5 4.5h-301h-8q-12 -3 -12 -16v-520q0 -11 11 -15q3 -1 10 -1h293q7 0 10 1
q12 2 12 14zM424 555q8 0 11 -8q1 -2 1 -7v-413q0 -12 -12 -12h-248q-12 0 -12 12v411q0 7 1 10q4 6 9 7h2h248zM412 139v392h-224v-392h224zM313 91q10 -6 10 -17q2 -11 -6 -19q-5 -5 -13 -7q-11 -2 -19 6q-8 6 -8 16q-1 9 6 18q5 5 15 7q8 0 15 -4z" />
    <glyph glyph-name="four" unicode="4"
d="M300 601h-1v-1q-6 0 -10 -4l-91 -91q-4 -4 -4 -10q0 -8 8 -12q9 -5 16 2q23 22 67 66v-236h-237l64 63q0 1 2 2.5t2 2.5q5 8 1 15q-3 5 -10 7q-7 1 -13 -4q-60 -60 -90 -91q-3 -2 -5 -9v-2q2 -6 4 -8l91 -91q6 -8 13 -4q10 2 11 9q2 9 -2 13l-5 5l-63 63h237v-237l-63 63
q-3 5 -7 6q-10 5 -16 -3q-8 -6 -3 -15q1 -3 6 -8l87 -87q6 -8 16 -4q3 2 7 6l86 86q4 5 5 6q2 6 1 9q-2 9 -10 11q-7 3 -14 -3q-22 -23 -66 -67v237h236l-63 -63q-1 -1 -2 -2.5t-2 -2.5q-6 -8 -1 -16q4 -6 9 -6q8 -3 14 4l86 86l6 6q7 8 -1 18l-6 5q-14 15 -42.5 43
t-42.5 43q-6 6 -15 4q-10 -3 -10 -14q0 -6 4 -10q23 -22 67 -66h-237v237q33 -34 67 -67q7 -7 16 -2q9 4 7 12q2 6 -4 10q-30 31 -90 91q-4 4 -10 4v1z" />
    <glyph glyph-name="five" unicode="5"
d="M0 306v-10q0 -37 13 -76q19 -60 69 -107q49 -45 107 -59q65 -18 133 -1q45 12 85 41q54 39 82 101q15 -39 49 -57q24 -13 50 -13q6 0 10 6q3 7 0 13q-4 6 -10 6q-11 0 -16 1q-29 6 -49 32q-9 11 -14 32q-1 9 -1 30v10q13 69 -10 132q-24 64 -71 105q-47 42 -105 57
q-43 12 -90 7q-63 -4 -119 -42q-63 -42 -93 -112q-20 -46 -20 -96zM240 533q42 2 81 -9q61 -18 107 -67q45 -49 57 -117q11 -63 -14 -125q-18 -47 -57 -83q-37 -36 -86 -51q-70 -23 -141 -1q-63 20 -106 69t-54 115q-11 65 14 125q23 54 67 90q57 48 132 54zM247 506
q-15 -4 -24 -9q-19 -12 -28 -36q-5 -24 3 -42q7 -18 26 -30q21 -13 43 -8q28 5 43 29q18 29 3 60q-10 20 -28 29q-16 9 -38 7zM252 481q12 2 22 -4q15 -8 19 -23q4 -12 -1 -26q-7 -14 -19 -19q-10 -6 -25 -4q-14 3 -23 15q-10 13 -7 29q2 13 12 22q8 9 22 10zM120 415
q-31 -5 -47 -32q-11 -21 -7 -42q3 -25 24 -39q16 -13 37 -13t39 13q14 10 21 30q8 20 0 41q-6 19 -24 32q-19 12 -43 10zM373 406q-11 -2 -19 -6q-24 -11 -33 -38q-6 -21 2 -42q10 -25 35 -35q19 -9 43 -2q27 10 38 34q9 19 4 42q-8 28 -31 40q-20 10 -39 7zM121 390
q13 2 22 -3q15 -7 21 -21q5 -13 0 -26q-4 -13 -16 -21q-11 -7 -26 -5q-13 2 -21 11q-12 11 -12 27q0 12 7 22q8 13 25 16zM376 381q14 3 26 -5q10 -6 15 -17q5 -13 2 -26q-5 -14 -16 -22q-12 -8 -27 -6q-15 3 -24 14q-7 9 -9 21q-1 13 7 26q10 14 26 15zM249 333
q-15 -3 -22 -18q-5 -9 -3 -20q4 -16 17 -22q11 -6 22 -3q12 1 20 13q7 10 5 24q-3 17 -17 23q-11 5 -22 3zM254 309q8 2 10 -6t-7 -10q-9 0 -9 8q0 6 6 8zM332 255q-11 -1 -22 -6q-25 -14 -33 -42q-5 -20 4 -40q11 -26 37 -34q21 -7 44 1q26 11 36 37q6 19 2 37
q-4 16 -16 29q-23 23 -52 18zM163 255q-10 -2 -16 -4q-24 -10 -35 -35q-7 -21 -1 -43q8 -25 34 -38q22 -10 45 -2q28 8 39 35q8 19 3 41q-6 26 -31 39q-20 10 -38 7zM165 231q15 2 27 -6q10 -7 15 -18q6 -13 -1 -30q-2 -7 -12 -15q-13 -10 -29 -8q-11 3 -21 11
q-12 12 -12 28q0 11 9 24q10 11 24 14zM334 231q17 2 28 -8q11 -8 14 -21q5 -16 -5 -30q-12 -22 -38 -17q-16 2 -25 14q-10 13 -7 29q2 11 8 19q9 12 25 14z" />
    <glyph glyph-name="six" unicode="6"
d="M454 599l-6 -6q-201 -200 -401 -401q-1 -1 -4 -6q-7 -28 -21.5 -84t-21.5 -84q-2 -5 1 -10q4 -11 16 -7q29 7 82 20.5t75 19.5q4 -2 11 -2q7 1 11 11q0 2 1 2q132 133 398 399q5 4 5 10t-5 10l-122 123q-1 0 -2.5 2t-2.5 2q-6 5 -14 1zM75 180q64 64 192.5 193t192.5 193
l105 -105l-385 -385q-70 70 -105 104zM64 151l48 -48l39 -39l-117 -30z" />
    <glyph glyph-name="seven" unicode="7"
d="M78 588q-19 -8 -37 -26q-25 -24 -35 -59q-9 -31 -4 -64q3 -31 18 -67q17 -37 42 -77q17 -25 38 -50q44 -53 89 -97q45 -43 89 -75q36 -26 67 -40q36 -18 69 -25q38 -8 74 -2q35 6 63 25q27 21 41 45q9 15 8 27q-1 15 -14 31q-4 5 -40 41l-27 27q-18 16 -29 21
q-14 6 -27 3q-11 -2 -29 -14q-6 -4 -34 -30l-6 -5q-10 -10 -16 -14l-6 -3q-3 1 -9 5q-26 16 -47 33q-58 49 -94 89q-28 31 -44 55q-13 22 -16 29q3 5 11 13l25 27q19 17 28 35q10 15 7 28q-1 14 -17 34q-7 9 -23 24.5t-21 20.5q-12 13 -25 25q-13 11 -24 16t-23 2
q-10 -1 -22 -8zM104 568q2 1 5 1q4 -1 12 -7q12 -8 20 -18l29 -29q23 -23 28 -30q6 -8 7 -14t-5 -14q-7 -12 -27 -32q-38 39 -114 115q14 14 29 22q14 6 16 6zM32 493q6 16 10 24q74 -74 111 -112q-11 -11 -16 -20q-6 -11 -3 -20t19 -37q15 -23 39 -50q47 -52 91 -89
q32 -26 48 -37q14 -9 31 -19q8 -3 18 0t26 17l107 -107q-31 -14 -70 -11q-36 4 -72 20q-37 16 -72 41q-48 34 -93 79q-46 45 -90 98q-37 47 -62 96q-18 41 -23 68q-6 31 1 59zM459 194q10 5 12 5q6 0 14 -6l32 -29l22 -22q22 -22 27 -29q5 -6 6 -13q-1 -6 -5 -11
q-11 -18 -28 -31q-19 18 -112 111q20 18 32 25z" />
    <glyph glyph-name="eight" unicode="8"
d="M576 600h-554h-6q-6 -1 -9 -3q-7 -3 -7 -14v-568q0 -3 2 -7q3 -6 10 -8h12h554h10q8 2 11 9q1 4 1 10v566q0 12 -12 14q-9 0 -12 1zM38 59l-9 -9v521h542v-156q-4 -1 -7 -6q-158 -160 -237 -241q-48 50 -71 73q-3 4 -7 7q-10 5 -17 -2q-32 -31 -97 -93.5t-97 -93.5z
M181 478q-29 -2 -43 -25q-12 -16 -10 -39q2 -20 17 -34q14 -15 35 -17t38 11q12 9 18 22q10 19 3 41q-6 22 -25 33q-16 9 -33 8zM182 450q12 0 18 -5q13 -8 13 -24q0 -11 -8 -21q-6 -6 -15 -8q-12 -2 -22 5q-9 8 -11 20q-3 11 6 22q8 9 19 11zM336 137l217 221l18 18v-348
h-396h-127q30 30 90.5 88t90.5 88l12 11q24 -24 72 -74q4 -4 6 -5q9 -7 17 1z" />
    <glyph glyph-name="nine" unicode="9"
d="M288 599q-56 -3 -107 -33q-46 -28 -76 -77q-34 -56 -32 -123q2 -35 24 -82q23 -52 66 -116q23 -33 73 -99q36 -44 54 -65q5 -6 13 -4q5 0 8 5q37 42 78 95q30 39 57 81q35 53 54 94q16 32 23 63q5 18 5 34q0 83 -53 145q-37 46 -91 67q-45 18 -96 15zM202 547
q62 36 134 23q62 -11 107 -56q40 -40 54 -97q4 -23 5 -37q0 -15 -1 -22q-5 -26 -19 -61q-19 -42 -60 -105q-45 -67 -98 -131q-4 -4 -11.5 -14t-11.5 -14l-6 6q-25 29 -71 89q-44 60 -72 107q-31 52 -44 91q-9 27 -9 46q0 33 11 66q10 29 31 57q27 34 61 52zM294 510
q-45 -3 -75 -33q-19 -18 -29 -45q-11 -35 -2 -69q9 -31 32 -54q24 -21 51 -28q40 -10 75 5q27 13 44 34q20 22 26 56q4 30 -7 61q-12 29 -36 48q-34 28 -79 25zM292 484q28 2 50 -10q27 -14 40 -41q14 -30 6 -63q-8 -25 -26 -42q-19 -19 -49 -24q-34 -5 -62 14
q-30 19 -38 53q-8 30 4 59q13 27 37 41q15 10 38 13z" />
    <glyph glyph-name="semicolon" unicode=";"
d="M13 53h573q8 2 11 6q3 5 3 15v354q0 8 -6 12q-3 3 -10 3h-121h-15v8v19q0 3 -0.5 12t-1.5 14q-6 28 -30 42q-12 7 -26 9q-7 1 -19 1h-147q-8 0 -12 -1q-25 -2 -41 -19q-19 -19 -19 -46v-31v-8h-9h-127q-6 0 -10 -3t-6 -9v-366q2 -7 6 -10q4 -2 7 -2zM208 518q5 1 15 1
h154q10 0 15 -1q21 -6 26 -27q1 -3 1 -21v-27h-26h-205h-7v8v30q0 10 2 14q7 18 25 23zM28 408v6h8h527h8v-8v-311v-13h-16h-519h-8v72v254z" />
    <glyph glyph-name="less" unicode="&#x3c;"
d="M431 596l-174 -174q-9 -9 -1 -19l49 -48q4 -6 13 -4q11 2 11 14q0 6 -4 10l-37 37q25 26 76.5 77t76.5 77l124 -124q-25 -26 -76.5 -77t-76.5 -77l-35 35q-7 7 -16 4q-6 -3 -8 -11q-2 -7 3 -13l46 -46q6 -6 16 -2q2 1 6 5l171 171q11 10 1 20l-145 145q-10 10 -20 0z
M373 386q-5 -1 -11 -7q-73 -75 -148 -148q-8 -8 -3 -18q5 -9 15 -7q3 0 9 4q25 26 75.5 76t75.5 76q9 9 0 20q-6 6 -13 4zM178 343l-174 -174q-7 -7 -3 -17l5 -5l142 -142q9 -12 20 -1l173 173q3 2 5 8q2 8 -4 14l-47 47q-6 6 -13 4q-6 -1 -10 -9q-4 -7 1 -13q1 -2 4 -5
l35 -35q-102 -102 -154 -153l-124 124q26 25 77 76.5t77 76.5l35 -35q9 -7 17 -2q6 4 7 9q2 8 -4 14l-45 45q-11 9 -20 0z" />
    <glyph glyph-name="equal" unicode="="
d="M116 552q-40 -10 -67 -34q-23 -20 -35 -46q-15 -32 -15 -66q1 -11 5 -24q5 -15 16 -36q12 -21 32 -46q3 -4 9 -10q75 -81 223 -243l6 -6q7 -3 14 0q4 4 6 5l229 246q6 6 9 10q24 29 37 55q12 30 14 46q3 53 -30 94q-37 48 -100 58q-74 11 -133 -35q-25 -20 -39 -46
q-21 40 -61 62q-57 32 -120 16zM77 504q30 21 68 24q58 5 100 -34q28 -25 36 -60q0 -1 0.5 -3t1 -3.5t1.5 -2.5q3 -8 12 -8q12 -2 14 11q6 29 26 52q23 26 55 38q38 15 72 9q28 -3 56 -21q26 -19 40 -46q12 -26 12 -54q-1 -10 -6 -23q-9 -22 -29 -50q-10 -14 -16 -20
l-223 -238q-29 31 -87 95q-90 98 -135 148q-23 26 -35 52q-11 22 -12 36q0 26 8 45q11 30 41 53zM434 497h-9q-12 -3 -12 -15q0 -11 11 -13q2 -1 7 -1q17 0 30 -6q15 -5 28 -20q21 -24 16 -58q-2 -9 7 -14q8 -6 15 0q6 3 6 10q5 27 -6 53q-11 29 -35 45q-25 17 -58 19z" />
    <glyph glyph-name="greater" unicode="&#x3e;"
d="M13 102l-1 1q-5 0 -8.5 4t-3.5 9v368q0 9 9 13q3 1 10 1h567q12 0 14 -14v-22v-335v-11q-2 -8 -5 -10q-3 -3 -8 -3l-1 -1h-573zM545 469h-490q41 -32 122.5 -98t122.5 -98q183 147 245 196zM29 454v-323h542v323q-43 -35 -129.5 -104.5t-129.5 -104.5l-7 -4q-7 -3 -14 2
q-245 197 -262 211z" />
    <glyph glyph-name="question" unicode="?"
d="M296 600q-8 -4 -10 -10v-7v-86q0 -10 8 -13q8 -5 16 2q4 3 4 10v91q0 7 -5.5 11t-12.5 2zM95 516q-8 -2 -11 -10q-2 -8 4 -14l63 -63q8 -6 16 -3q6 3 8 10q2 8 -3 13l-63 62q-5 7 -14 5zM499 516q-5 0 -8 -5l-62 -62q-6 -4 -4 -13q1 -7 9 -11q6 -1 13 2l4 4l61 61
q10 10 1 19q-5 7 -14 5zM294 444q-42 -2 -76 -25q-32 -23 -47 -54q-16 -33 -15 -67q0 -38 18 -68q13 -26 38 -45q28 -21 58 -27q37 -8 73 3q24 7 47 25q40 31 51 80q9 40 -3 78q-9 29 -29 52q-21 24 -50 36q-32 14 -65 12zM295 416q34 2 64 -16q27 -16 42 -43q18 -29 15 -65
q-2 -32 -19 -57q-17 -26 -45 -40q-33 -16 -68 -11q-29 5 -53 22q-26 20 -38 49q-14 33 -6 68q6 31 28 55q32 36 80 38zM8 313q-9 -4 -9 -13q0 -5 4.5 -9.5t10.5 -4.5h87h6q7 3 10 9q3 7 -2 14q-6 6 -12 6h-82q-1 0 -6 -0.5t-7 -1.5zM493 314q-7 -1 -10 -9q-2 -7 1 -12
q4 -7 12 -7h90q9 0 13 8q3 10 -3 16q-5 5 -10 5h-85q-6 0 -8 -1zM158 175q-4 0 -8 -4q-42 -42 -62 -63q-6 -6 -4 -12q2 -10 11 -12q7 -2 13 4l63 63q4 4 4 7q2 10 -4 14t-13 3zM436 175q-6 0 -10 -7t0 -14l5 -5l61 -61q10 -10 20 0q9 7 3 17l-6 6q-40 40 -59 60q-6 6 -14 4z
M296 117q-10 -2 -10 -13v-86q0 -7 2 -10q6 -12 15 -7q11 2 11 13v90q0 8 -6 12t-12 1z" />
    <glyph glyph-name="at" unicode="@"
d="M4 497q-8 -17 -1 -35q5 -16 17 -23q12 -9 27 -9h46l18 -39q4 -12 13 -29l48 -108q1 -2 2.5 -6t2.5 -6l9 -19l6 -12q8 -11 21 -17q4 -4 8 -4h224h37q6 0 8 1q1 1 2.5 2t2.5 2q10 4 19 15q4 6 6 14q49 107 59 131l8 15q8 20 11 31q3 15 2 29q-4 17 -14 23q-9 8 -25 8h-378
q-3 6 -8 17.5t-8 17.5q-5 12 -15 19q-13 10 -30 10h-76q-29 -2 -42 -28zM42 503h5h77q16 0 23 -15q3 -7 9.5 -21t9.5 -21q3 -6 10 -6h385q9 0 13 -5q5 -5 5 -15q-2 -18 -9 -34q-1 -4 -4.5 -11l-4.5 -9q-40 -88 -59 -132l-5 -9q-4 -7 -9 -10l-9 -3q-2 -1 -7 -1h-243
q-3 0 -5 2q-12 3 -17 16q-1 1 -1 3t-1 3q-4 6 -10 20l-48 108q-4 8 -6 13q-5 9 -10 22l-3 6q-3 7 -9 20.5t-9 20.5l-6 6h-7h-48q-6 0 -9 1q-14 5 -17 18q-3 11 2 21q6 9 17 12zM271 76h3q13 0 26 8t19 21q9 17 4 37q-8 28 -35 36q-18 7 -35 -1q-30 -12 -33 -42q-3 -19 9 -38
q16 -21 42 -21zM449 76h3q23 0 38 18q13 15 13 33q0 28 -20 42q-15 12 -34 12q-30 0 -45 -28q-10 -18 -5 -38q6 -24 29 -34q8 -5 21 -5zM268 159q12 2 19 -4q13 -6 16 -22q2 -12 -6 -23q-7 -10 -19 -12q-16 -3 -27 8q-8 7 -10 18q-2 14 7 24q8 9 20 11zM446 159q12 2 23 -6
q10 -7 12 -21q2 -15 -8 -25q-9 -9 -19 -10q-14 -2 -25 8q-7 7 -10 18q-2 12 5 22q8 12 22 14z" />
    <glyph glyph-name="A" unicode="A"
d="M275 622q-87 -6 -157 -59q-42 -31 -69 -73q-41 -61 -48 -129q-13 -101 36 -186q55 -96 156 -133q120 -45 235 10q96 47 142 144q53 115 9 234q-40 107 -146 162q-74 36 -158 30zM276 603q91 8 168 -40q44 -26 76 -68t47 -91q22 -70 5 -141q-10 -52 -43 -99
q-58 -87 -159 -112q-65 -18 -135 -2q-55 12 -99 44q-56 40 -86 99q-48 88 -26 188q15 76 69 133q52 56 126 78q22 7 57 11zM305 437q-48 -40 -71 -60l12 -17q8 -11 19 -2l33 27q-1 -16 -1 -49v-102h-47v-30h129v30h-42v203h-32z" />
    <glyph glyph-name="B" unicode="B"
d="M277 601q-114 -8 -192 -91q-56 -56 -76 -137q-20 -89 10 -173q23 -65 73 -113q35 -35 88 -60q115 -50 232 -4q103 41 153 137q26 48 34 105q8 73 -16 139q-38 108 -138 161q-79 44 -168 36zM278 582q89 8 167 -39q53 -31 87 -82q30 -43 42 -95q15 -68 -1 -134
q-26 -102 -115 -162q-45 -32 -104 -43q-65 -12 -126 4q-56 15 -102 52q-46 36 -74 90q-44 84 -28 176q14 80 67 139q51 59 126 82q29 9 61 12zM291 416q-28 -3 -45 -23q-16 -16 -19 -43q4 0 12 -1.5t13 -2.5q11 0 14 9q6 16 13 21q11 10 30 8q15 -2 22 -13q7 -10 5 -30
q-4 -19 -22 -41q-6 -7 -18 -19.5t-16 -16.5l-49 -49q-5 -5 -6 -9q-2 -4 -2 -21h158v25q-2 13 -13 11h-60q-12 1 -28 -4q12 13 35 37t35 36q20 23 25 44q7 26 -6 50q-9 19 -31 27q-20 8 -47 5z" />
    <glyph glyph-name="C" unicode="C"
d="M273 602q-107 -8 -183 -81q-39 -37 -63 -84q-28 -57 -31 -124q-2 -85 39 -157q53 -95 155 -134q122 -45 236 10q96 47 142 144q53 115 9 234q-42 108 -146 162q-74 36 -158 30zM273 583q58 5 110 -13q71 -24 119 -76q37 -40 57 -92q22 -57 17 -123q-4 -58 -34 -111
q-48 -90 -147 -127q-63 -25 -129 -17q-58 6 -111 37q-43 25 -78 67q-59 74 -61 166q-1 34 7 74q16 70 69 128q52 56 126 77q24 7 55 10zM288 415q-26 -3 -44 -24q-13 -15 -17 -40q8 -2 20 -4q9 -2 14 2q2 1 7 11q3 9 13 18q13 8 27 5q12 0 20 -9q9 -10 7 -27q-2 -14 -11 -21
q-12 -9 -38 -9v-28q19 0 29 -3q13 -4 19 -11q5 -9 5 -23q-2 -21 -21 -31q-27 -12 -46 7q-6 6 -14 20q-6 10 -18 4q-4 -1 -10 -3.5t-10 -3.5q12 -32 26 -44q16 -14 40 -16q33 -3 56 9q26 14 34 42q5 27 -5 47q-10 17 -34 24q21 7 29 20q9 15 7 39q-3 26 -27 40q-24 16 -58 9z
" />
    <glyph glyph-name="D" unicode="D"
d="M275 603q-94 -8 -167 -68q-57 -47 -86 -117q-44 -103 -7 -211q26 -77 87 -129q40 -35 86 -53q118 -47 234 5q52 23 92.5 64.5t61.5 93.5q24 57 23 120.5t-26 118.5q-23 49 -62 89q-56 57 -137 78q-45 12 -99 9zM279 584q62 3 117 -17q72 -27 119 -84q40 -48 55 -106
q18 -67 3 -134q-22 -103 -108 -166q-41 -31 -95 -45q-73 -19 -144 1q-54 14 -99 49q-61 49 -88 117q-42 104 -1 207q24 64 77 109q69 61 164 69zM97 425q-10 -20 4 -36q10 -12 24 -12h27q8 -16 11 -24q2 -5 6.5 -14.5t5.5 -11.5q11 -26 35 -78q5 -12 15 -18v-4h40
q-28 -2 -33 -27q-7 -26 15 -39q10 -7 23 -6t22 10q21 21 5 45q-9 15 -29 17h108q-22 -2 -30 -21q-13 -24 8 -42q10 -9 24 -9t24 9q10 8 12 21.5t-5 23.5q-9 16 -29 18h31q0 3 -1 4q10 8 13 13q6 15 20 45t20 45q11 22 12 37q2 15 -7 24q-8 8 -21 8h-235l-9 21q-7 14 -21 17
q-2 1 -15 1h-21t-21 1q-19 0 -28 -18zM113 407q-1 6 2.5 11t9.5 5h48q9 0 12 -8l15 -31h246q7 0 9 -3q1 -2 1 -12q-2 -7 -14 -34q-33 -74 -35 -79q-3 -10 -13 -10h-153q-10 0 -12 9q-3 8 -11 22l-30 68q-1 3 -5 9l-18 42h-39q-11 0 -13 11zM263 207q7 2 13 -2t7 -11
t-4 -13.5t-13 -6.5q-14 0 -16 16q-2 13 13 17zM375 207q7 2 13.5 -3t6.5 -12q1 -8 -5.5 -13.5t-13.5 -3.5q-16 2 -14 18q0 12 13 14z" />
    <glyph glyph-name="E" unicode="E"
d="M277 602q-79 -4 -149 -52q-39 -27 -69 -66q-45 -61 -57 -134q-14 -98 29 -182q52 -105 163 -146q120 -46 236 11q97 47 142 145q51 114 8 229q-37 101 -130 155q-79 48 -173 40zM297 584q92 0 165 -52q44 -33 72 -76q32 -49 41 -106q12 -68 -9 -132q-30 -95 -114 -150
q-47 -31 -107 -42q-54 -9 -107 3q-52 12 -99 43q-52 36 -82 89q-42 72 -39 151q3 76 40 136q46 74 121 109q55 25 118 27zM283 486q-64 -6 -110 -52q-32 -31 -47 -78q-15 -51 1 -104q22 -75 93 -109q59 -30 124 -14q48 12 83 46q37 37 49 85q15 60 -8 114q-27 66 -92 96
q-46 20 -93 16zM284 466q52 6 98 -21q41 -25 62 -66q28 -52 14 -110q-13 -54 -54 -88q-34 -28 -79 -36q-35 -6 -71 5q-37 10 -67 39q-32 31 -43 74q-14 51 5 101q19 46 58 73q35 26 77 29zM378 367q-18 -17 -53.5 -51.5t-53.5 -51.5l-48 44q-7 7 -13 1q-9 -7 0 -15l54 -51
q8 -6 14 0q1 1 112 109q6 6 3 12q-2 5 -7 6t-8 -3z" />
    <glyph glyph-name="F" unicode="F"
d="M278 602q-61 -3 -116 -32q-60 -31 -99 -82q-47 -59 -59 -132q-19 -104 31 -196q53 -99 158 -138q121 -45 234 10q97 45 143 143q54 113 11 231q-36 98 -124 152q-81 52 -179 44zM297 584q52 0 100 -18q66 -24 112 -77q37 -41 55 -93q22 -63 13 -134q-10 -59 -39 -106
q-52 -84 -142 -116q-65 -24 -135 -15q-57 7 -109 39q-48 30 -78 72q-53 71 -55 158q-2 44 10 85q22 78 82 132q53 48 121 65q35 8 65 8zM330 501q-2 -1 -4.5 -3t-3.5 -3l-215 -215q-7 -7 -7 -10q0 -4 4 -10q19 -18 55 -54q6 -8 14 0q1 1 3 5q12 8 20 -2t-1 -21l-7 -7
q-3 -6 2 -11l58 -58q6 -8 14 0l222 222q4 4 5 6q2 2 1.5 6t-3.5 6l-53 53q-1 1 -2.5 3.5t-3.5 3.5q-7 4 -12 -3q-5 -5 -13 -3q-13 6 -13 18q0 3 3.5 6.5t3.5 5.5q1 6 -4 11q-9 9 -26.5 26t-26.5 26q-4 5 -10 2zM124 269q104 105 209 209l41 -41q-5 -9 -3 -19q3 -19 22 -28
q15 -8 29 0l45 -45l-81 -81l-131 -131l-44 44q8 10 7.5 24t-10.5 23q-19 19 -43 3q-28 28 -41 42zM315 417q-3 -1 -7 -5l-120 -120q-6 -6 0 -12q1 -2 5 -6q48 -48 73 -72q3 -5 8 -6q6 -2 9 3l122 122q5 5 3 9q-1 4 -7 8q-37 39 -76 76q-4 7 -10 3zM276 219l-67 67l109 108
l66 -66q-36 -37 -108 -109z" />
    <glyph glyph-name="G" unicode="G"
d="M280 601q-42 -3 -76 -16q-68 -23 -117 -74q-51 -51 -73 -123q-30 -100 9 -198q27 -66 78 -111q39 -36 88 -56q117 -46 229 2q96 40 146 131q28 50 36 110q8 72 -16 137q-32 94 -117 149q-85 57 -187 49zM300 582q48 0 92 -15q70 -23 119 -78q37 -41 55 -93
q24 -67 13 -135q-8 -55 -34 -100q-52 -88 -146 -122q-63 -24 -132 -16q-60 8 -113 40q-84 52 -117 145q-38 110 10 212q37 78 110 122q66 40 143 40zM220 475q-36 -106 -79 -239q-4 -6 2 -10l53 -54q6 -6 13 0l2 3q2 3 4 4q9 3 15 -3q7 -7 1 -18q-1 -1 -4 -3.5t-4 -4.5
q-3 -6 2 -11l54 -54q6 -7 14 -1l57 58q78 76 154 154q4 2 4 7t-4 7q-13 14 -39 40q-11 12 -13 14q-5 5 -11 3q-2 0 -5 -3t-6 -3q-6 0 -11.5 5t-4.5 12q0 2 3 5t3 5q1 6 -2 9l-51 51q-5 5 -10 3q-4 -1 -8 -7q-15 10 -45 28q-7 4 -12 -1l-6 -9q-16 5 -48 17l-8 3q-8 0 -10 -7z
M235 459q18 -6 40 -14l-92 -143q9 29 27 82.5t25 74.5zM210 309l92 141q11 -6 33 -20l-120 -120l-6 -6q0 1 -1 2q2 2 2 3zM202 194l-38 38l196 196q6 -6 18.5 -19t18.5 -19q-5 -12 -1 -24q7 -18 25 -23q10 -3 22 2q13 -14 41 -42l-198 -198q-6 7 -20 20.5t-20 20.5
q12 15 4 33q-7 18 -26 20q-11 1 -22 -5zM342 372l-4 -3l-114 -114q-8 -8 0 -14q36 -38 74 -74q3 -4 8 -4q4 0 10 6l107 107l6 6q4 8 -2 12l-75 75q-3 5 -10 3zM306 186l-62 62q51 50 101 101l62 -62q-51 -50 -101 -101z" />
    <glyph glyph-name="H" unicode="H"
d="M281 601q-33 -1 -71 -13q-71 -23 -123 -77q-50 -50 -72 -120q-31 -101 8 -200q26 -65 78 -112q38 -34 87 -55q116 -47 232 2q95 41 145 131q30 55 36 118q6 69 -18 132q-37 100 -130 155q-81 47 -172 39zM300 583q53 0 101 -18q65 -25 111 -77q37 -41 55 -93
q22 -63 13 -134q-10 -61 -40 -107q-49 -82 -141 -115q-65 -24 -135 -15q-61 8 -111 41q-81 50 -114 139q-38 104 3 204q32 80 104 127q67 46 154 48zM240 481q-21 -19 -24 -48q-3 -14 -1 -42q-9 -15 -6 -31q2 -23 18 -35q7 -23 26 -50q-25 -7 -45 -18q-25 -12 -47 -28
q-30 -24 -38 -47q-3 -10 -3 -29q2 -9 10 -9h351q9 0 9 8q2 18 -4 32q-8 20 -29 39q-25 20 -49 32t-51 21q20 23 27 49q14 11 17 29q4 21 -5 37q4 39 -8 65q-9 23 -32 36q-27 13 -63 10q-32 -2 -53 -21zM275 479q25 8 51 3t38 -23q15 -20 13 -52q0 -3 -0.5 -9t-0.5 -9
q-1 -3 2 -7t3 -5q4 -9 0 -23q-2 -7 -6 -11q-1 -1 -3.5 -2.5t-3.5 -2.5q-2 -2 -2 -5q-6 -25 -23 -43q-5 -8 -5 -10q-1 -4 1 -13q2 -7 8 -9q14 -4 32 -11q28 -12 52 -28q22 -18 30 -30q10 -12 10 -25h-332q1 18 23 40q28 25 72 44q20 8 30 10q6 2 8 13q2 10 -1 14
q-18 21 -25 42q0 1 -0.5 4.5t-1.5 4.5q-2 2 -5.5 4.5t-4.5 3.5q-10 15 -5 32q0 1 3.5 5.5t2.5 8.5q-5 36 6 60q10 23 34 29z" />
    <glyph glyph-name="I" unicode="I"
d="M277 599q-96 -8 -166 -67q-65 -53 -93 -134q-36 -103 3 -204q16 -43 47 -82q69 -86 176 -106q71 -15 145 7q109 33 167 129q33 52 42 114q11 71 -12 138q-36 113 -141 169q-77 44 -168 36zM281 580q62 5 117 -16q77 -29 128 -95q29 -40 44 -86q23 -73 4 -149
q-25 -106 -116 -167q-44 -30 -98 -41q-68 -15 -138 5q-52 16 -93 48q-62 48 -89 119q-40 102 -1 202q23 59 69 104q75 70 173 76zM245 475l-21 -36q-16 4 -23 6l-12 -46h-29v-237h297v80h13v76h-13v81h-103q2 8 4 12q-19 11 -56.5 32t-56.5 32zM252 449q48 -28 56 -32
l-65 17zM215 422q56 -16 84 -23h-90q2 7 6 23zM334 399h-8v7q3 -1 9 -5q-1 0 -1 -2zM179 380h259v-62h-88v-76h88v-61h-259v199zM369 299h81v-37h-81v37z" />
    <glyph glyph-name="J" unicode="J"
d="M278 600q-52 -5 -94 -23q-58 -23 -101 -69q-45 -47 -67 -110q-28 -82 -8 -167q16 -64 54 -114q38 -49 90 -77q77 -45 170 -39q74 6 133 43q54 31 91 84q37 56 49 118q16 91 -19 171q-20 49 -60 92q-40 41 -91 64q-69 32 -147 27zM280 571q76 6 143 -29q56 -28 96 -82
q34 -46 46 -102q19 -86 -17 -167q-26 -59 -77 -101q-50 -41 -115 -55q-41 -9 -87 -4q-53 6 -100 32q-52 27 -90 80q-41 57 -49 127q-4 32 1 72q11 63 47 114q39 56 97 86q51 25 105 29zM336 407q-64 -64 -96 -97q-11 -9 -1 -19l97 -97q9 -7 17 -2q4 3 6 8q3 7 -2 14
q-58 58 -87 86q58 58 86 87q8 7 2 17q-4 7 -12 7q-6 0 -10 -4z" />
    <glyph glyph-name="K" unicode="K"
d="M276 598q-80 -5 -147 -51q-56 -37 -92 -98q-32 -56 -38 -119q-3 -25 -1 -56q6 -72 44 -133q32 -51 83 -88q40 -28 84 -41q42 -13 89 -13q76 0 141 36q56 30 97 83q39 49 55 118q19 92 -16 177q-20 47 -54 86q-44 49 -102 74q-68 31 -143 25zM277 570q78 6 149 -32
q55 -31 91 -80q32 -43 45 -98q19 -87 -14 -165q-24 -60 -76 -104q-51 -42 -114 -57q-45 -9 -89 -5q-56 6 -104 33q-55 30 -90 81q-38 54 -47 122q-6 47 5 97q16 63 54 108q36 44 83 69q48 26 107 31zM241 405q-10 -8 -1 -19l87 -87l-86 -86q-7 -7 -3 -16q2 -5 6 -6
q7 -5 14 0l6 4q30 31 91 92q3 2 5 5q4 7 0 14q-2 3 -5 5l-94 94q-4 5 -10 5t-10 -5z" />
    <glyph glyph-name="L" unicode="L"
 />
    <glyph glyph-name="M" unicode="M"
 />
    <glyph glyph-name="N" unicode="N"
 />
    <glyph glyph-name="O" unicode="O"
 />
    <glyph glyph-name="P" unicode="P"
 />
    <glyph glyph-name="Q" unicode="Q"
 />
    <glyph glyph-name="R" unicode="R"
 />
    <glyph glyph-name="S" unicode="S"
 />
    <glyph glyph-name="T" unicode="T"
 />
    <glyph glyph-name="U" unicode="U"
 />
    <glyph glyph-name="V" unicode="V"
 />
    <glyph glyph-name="W" unicode="W"
 />
    <glyph glyph-name="X" unicode="X"
 />
    <glyph glyph-name="Y" unicode="Y"
 />
    <glyph glyph-name="Z" unicode="Z"
 />
    <glyph glyph-name="bracketleft" unicode="["
d="M11 522q-11 -2 -11 -13t11 -15h12h561q5 0 7 1q7 2 9 10q2 7 -4 13q-3 4 -10 4h-564h-11zM12 392q-9 -1 -12 -10q-2 -11 7 -16q3 -2 15 -2h562q8 0 12 4q6 6 4 14q-3 9 -13 11h-9h-556q-7 0 -10 -1zM12 263q-12 -2 -12 -14t11 -14q4 -1 11 -1h556q10 0 14 2q8 3 8 13
q0 11 -11 13q-3 1 -9 1h-557h-11zM12 107q-10 -2 -12 -12t7 -15q5 -2 15 -2h244q7 0 10 1q8 0 11 8q4 9 -2 15q-5 5 -11 5h-260h-2z" />
    <glyph glyph-name="backslash" unicode="\"
d="M587 14v519q-2 8 -6 11q-5 3 -10 3h-89q0 14 -1 17q-2 16 -15 26q-10 8 -25 10q-17 1 -32 -10q-16 -14 -16 -33v-10h-182v16q-3 16 -16 27q-10 8 -25 10q-18 2 -30 -9q-16 -11 -18 -31v-13h-94q-8 0 -12 -7q-3 -3 -3 -8v-518q2 -6 4 -9q4 -6 10 -6h547q11 3 13 15z
M163 571q12 3 18 -8q2 -6 2 -8v-69q0 -8 -7 -13q-10 -7 -18 0q-8 5 -8 13v69q0 12 13 16zM434 571q13 4 18 -9q2 -4 2 -8v-63q0 -6 -1 -9q-2 -8 -10 -11q-9 -2 -13 1q-6 5 -8 11v7v66q0 13 12 15zM42 383v135h80v-32q0 -17 10 -28q10 -13 27 -16q18 -2 30 6q22 12 22 37v33
h182v-28v-10q3 -15 13 -25q12 -13 32 -13q15 0 27 9q17 14 17 34v33h76v-135h-516zM42 355h516v-326h-516v326zM151 304q-7 -2 -7 -10q0 -20 1 -30q0 -10 9 -10h31q10 0 10 10v31q0 10 -10 10h-27q-5 0 -7 -1zM315 305h-31q-9 -2 -9 -10v-31q0 -10 10 -10h28q3 0 5 1
q4 0 6 5q1 2 1 7v28q0 10 -10 10zM412 304q-5 -2 -7 -7v-6v-26q0 -7 6 -10q2 -1 7 -1h27q4 0 7.5 3.5t3.5 7.5v28q0 5 -2 7q-2 5 -8 5h-28q-4 0 -6 -1zM151 216q-7 -4 -7 -10v-28q0 -5 2 -7q2 -5 8 -5h28h7q6 3 6 9v31q0 10 -10 10h-30h-4zM281 216q-6 -3 -6 -10v-29
q0 -4 1 -6q4 -6 9 -5h31q9 0 9 10v29q0 4 -1 6q-2 5 -9 5h-27h-7zM412 216q-7 -4 -7 -10v-29q-1 -4 2 -7.5t7 -3.5h32q6 0 8 5q2 2 2 7v24q0 5 -1 8q-2 6 -9 6h-29h-5zM152 127q-8 -2 -8 -10v-30q0 -10 10 -10h30q4 0 5 1q6 2 6 9v31q0 4 -3 7t-7 2q-5 1 -14.5 1h-14.5
q-3 0 -4 -1zM282 127q-7 -2 -7 -10v-30q0 -10 10 -10h31q9 0 9 10v26v8q-3 6 -10 6q-5 1 -14 1h-14h-2q-2 0 -3 -1zM416 128l-4 -1q-7 -2 -7 -9v-31q0 -8 8 -10h33q10 0 10 10v27q0 5 -1 7q-4 7 -9 6q-5 1 -15 1h-15z" />
    <glyph glyph-name="bracketright" unicode="]"
d="M96 0h413q10 0 13 8q1 2 1 12v471h36q10 0 13 8q5 8 -2 17q-6 4 -10 4h-166v62q0 6 -1 9q-1 4 -7 8q-4 1 -11 1h-145q-7 0 -11 -1q-6 -3 -8 -11v-6v-62h-168q-6 0 -9 -1q-9 -4 -9 -14q2 -9 9 -12q4 -2 8 -2h40v-477q-1 -5 4 -9.5t10 -4.5zM239 572h127v-52h-127v52z
M110 491h385v-462h-385v462zM301 407q-11 -2 -11 -13v-262v-6q2 -6 6 -9q9 -5 17 1q5 5 5 12v237v28q0 6 -5.5 10t-11.5 2zM422 367q-10 -2 -10 -14v-222q0 -6 2 -9q6 -9 16 -6q10 2 10 13v225q0 9 -8 12q-4 3 -10 1zM177 367q-11 -2 -11 -13v-221q0 -5 1 -8q2 -6 7 -9
q8 -3 15 2q6 4 6 12v223q0 6 -5 11t-13 3z" />
    <glyph glyph-name="underscore" unicode="_"
d="M291 556q-56 -42 -160.5 -121t-122.5 -93q-1 -1 -3 -2.5t-3 -2.5q-4 -9 -1 -14q5 -8 13 -8l74 -3v-258q0 -5 4.5 -9t9.5 -4h130q6 0 10 4.5t4 9.5v152h99v-153q0 -9 8 -12q1 -1 9 -1h119q10 0 13 9q1 2 1 9v256h91q8 0 11 6q6 6 1 15q-2 3 -9 8q-93 71 -281 213
q-9 7 -17 -1zM55 342q225 170 245 185q162 -122 243 -184h-62q-11 0 -13 -9q-1 -2 -1 -9v-256h-94v153q0 5 -4 9.5t-10 4.5h-128q-5 0 -9.5 -4t-4.5 -10v-153h-100v257q0 5 -4 9.5t-9 4.5q-8 0 -24.5 0.5t-24.5 1.5z" />
    <glyph glyph-name="a" unicode="a"
d="M276 601q-86 -6 -155 -57q-53 -38 -85 -96q-38 -65 -38 -143q-2 -72 31 -137q30 -61 85 -104q48 -37 105 -52q92 -25 181 7q63 23 111 72q48 48 71 113q30 89 5 178q-17 60 -57 110q-44 52 -102 80q-69 34 -152 29zM240 336l-12 16q50 41 67 56h30v-189h39v-28h-120v28
h44v100v41q-4 -4 -13 -11.5t-14 -11.5q-1 -1 -2.5 -2t-2.5 -2q-9 -6 -16 3z" />
    <glyph glyph-name="b" unicode="b"
d="M306 603h-12q-39 -2 -71 -10q-65 -17 -117 -61q-54 -46 -81 -110q-25 -56 -25 -123q2 -72 35 -136q33 -61 85 -100q47 -35 103 -50q88 -24 178 7q62 23 109 68q52 52 74 117q15 44 16 83v14v2v6q-1 60 -26 115q-25 58 -75 103q-52 46 -119 64q-32 9 -74 11zM272 414
q19 6 37 5q19 0 34 -9q14 -9 21 -22q10 -18 7 -41q-1 -13 -10 -27q-6 -12 -20 -26q-10 -12 -32 -34q-20 -20 -29 -30q16 5 28 4h54q7 0 10 -3q3 -5 3 -9v-22h-149v12q0 7 6 15l45 45q16 16 24 23q17 19 23 29q8 13 10 29q0 17 -8 26q-7 7 -20 9q-17 0 -25 -7q-8 -5 -11 -13
l-6 -12q-4 -5 -13 -3l-21 3q4 23 14 36q10 14 28 22z" />
    <glyph glyph-name="c" unicode="c"
d="M307 603h-13q-39 -2 -71 -10q-63 -17 -116 -60q-54 -46 -83 -112q-24 -57 -24 -122q2 -72 35 -136q33 -61 85 -100q43 -33 97 -48q93 -28 184 5q62 23 109 68q52 52 74 117q13 37 16 79v18v2v10q-1 60 -28 116q-25 55 -73 98q-52 45 -118 64q-32 9 -74 11zM277 414
q16 7 38 5q18 -2 34 -11q14 -9 21 -27q5 -13 2 -30q-2 -13 -11 -23q-10 -10 -22 -13q20 -8 28 -18q10 -11 10 -31q2 -17 -6 -32q-8 -14 -20 -23q-17 -11 -40 -13q-15 -1 -33 2q-20 5 -31 19q-9 9 -19 33v3q10 4 16 7t13 1q3 -1 7 -5q4 -9 12 -19q9 -9 20 -10q19 -2 30 7
q10 7 13 19q2 7 0 21q-3 11 -13 16q-8 4 -36 6v26q22 0 34 7q9 5 11 15q4 12 -1 26q-4 11 -19 15q-16 4 -28 -4q-12 -7 -15 -20q-4 -8 -8 -10q-6 -2 -13 0l-17 3q2 20 14 37q11 15 29 21z" />
    <glyph glyph-name="d" unicode="d"
d="M292 -1h12q45 2 87 15q60 19 107 62q51 45 77 109q33 78 19 161q-9 60 -41 110q-33 54 -87 91t-120 48q-55 9 -111 -2q-65 -14 -116 -53q-59 -44 -91 -109q-31 -66 -30 -134q0 -72 32 -134q31 -60 83 -100q47 -38 105 -53q32 -9 74 -11zM94 428q9 12 24 12h51
q17 0 26 -17q8 -16 11 -24h246q10 0 17 -6q8 -8 8 -18q0 -17 -8 -33q-5 -10 -13 -29t-13 -28q-6 -16 -20 -46q-5 -10 -14 -13l-3 -3q-2 -1 -7 -1h-45h-122q-4 0 -7 3q-11 5 -16 16q-1 3 -4.5 9.5t-4.5 9.5q-5 10 -14 31t-14 32l-6 14q-4 6 -7 16l-12 25h-29q-13 0 -21 8
q-9 8 -10 19t7 23zM114 425q-10 -3 -12 -15q-1 -7 4 -12t11 -5h36q4 0 6 -5l13 -28q0 -2 1 -4l2 -4l8 -16l31 -70l7 -14l3 -8q4 -5 12 -7h125h36q11 2 14 13q7 15 20.5 45t20.5 45q9 21 10 29q0 7 -2 11q-1 4 -8 4h-250q-3 0 -5 1l-3 6l-12 25q-4 9 -15 9h-49h-4zM259 217
q16 2 26 -7q11 -7 12 -19q3 -14 -2 -23q-6 -16 -24 -19q-12 -3 -26 4q-12 9 -15 22q-3 14 5 27t24 15zM375 217q16 2 26 -7q9 -7 12 -19t-2 -23q-9 -16 -23 -19q-15 -3 -27 4q-13 8 -16 24q-2 12 4 22q8 16 26 18zM260 202q-14 -4 -16 -18q0 -11 8 -17q10 -7 20 -2
q14 7 11 22q-1 7 -8 12t-15 3zM376 202q-8 -2 -12.5 -8.5t-3.5 -13.5q1 -8 7.5 -13.5t14.5 -3.5t13 8.5t4 14.5q-2 8 -9 12.5t-14 3.5z" />
    <glyph glyph-name="e" unicode="e"
d="M307 603h-13q-68 -2 -124 -29q-61 -29 -104 -84q-43 -52 -58 -119q-21 -88 12 -176q27 -66 75 -110q41 -39 95 -61q95 -37 194 -9q63 18 114 63q54 47 79 110q35 83 18 169q-11 61 -43 109q-37 57 -93 92q-61 38 -133 44q-6 1 -19 1zM287 491q44 5 85 -12q65 -26 97 -90
q35 -71 8 -145q-17 -51 -59 -83q-48 -38 -110 -40q-32 -1 -66 10q-65 22 -100 82q-19 33 -24 74q-6 53 18 101q26 56 83 84q30 16 68 19zM296 477l-24 -3q-52 -9 -90 -47q-40 -40 -48 -96q-6 -43 9 -84q22 -62 81 -92q35 -17 76 -19q38 0 68 13q52 22 81 71q18 31 23 66
q5 43 -10 80q-23 63 -86 94q-39 19 -80 17zM384 369q7 4 11 0q5 -4 1 -10q-4 -4 -6 -7q-38 -36 -112 -108q-6 -6 -11 0l-57 53q-6 5 0 11q4 6 10 0q18 -16 52 -48q57 54 112 109z" />
    <glyph glyph-name="f" unicode="f"
d="M304 603h-13q-37 -2 -62 -8q-70 -17 -124 -62q-51 -42 -79 -103q-29 -64 -28 -130q0 -76 39 -146q32 -58 87 -96q52 -36 106 -47q93 -22 178 13q65 26 110 76q43 46 65 109q31 96 -2 192q-20 58 -59 101q-46 52 -109 78q-54 22 -109 23zM327 503q6 6 11 1l54 -54
q5 -4 4 -8q0 -4 -3 -6q-6 -6 -3 -15q3 -10 13 -13q9 -4 16 2q1 2 6 4q5 0 8 -4l1 -2l57 -57q3 -3 1 -8q0 -3 -4 -5q-96 -96 -143 -144l-42 -41l-46 -46q-5 -5 -11 0l-57 57q-1 1 -2 2.5t-2 2.5q-2 7 3 10q12 7 8 23q-3 9 -14 11q-7 1 -14 -4q-2 -5 -5 -7q-5 -2 -8 2l-58 58
q-5 6 0 11q114 116 230 230zM113 267l46 -46q9 7 18 7q16 2 25 -9q10 -9 10 -23t-9 -24q25 -24 49 -49q74 75 222 223l-49 49q-16 -8 -31 0q-17 9 -20 28q-1 8 4 19l-45 45q-111 -109 -220 -220zM315 419q5 0 8 -3l82 -82q4 -4 2 -8t-4 -5q-21 -21 -62 -62.5t-62 -62.5
q-5 -6 -11 0l-81 81q-4 4 -4 6q-1 4 3 8l121 121q7 6 8 7zM201 285q48 -48 73 -72l115 115l-72 72q-19 -19 -58 -57.5t-58 -57.5z" />
    <glyph glyph-name="g" unicode="g"
d="M600 298v3q0 60 -22 113q-24 57 -68 101q-49 48 -113 69q-89 30 -176 5q-63 -17 -112 -58q-52 -43 -81 -104q-28 -60 -28 -130q2 -73 35 -137q30 -59 84 -99q41 -32 99 -50q92 -26 183 6q62 23 109 68t70 107q20 52 20 106zM138 250l78 237q3 7 10 5q36 -14 55 -20
q1 3 5 9q5 5 11 2q15 -10 45 -28q2 1 6 5q3 5 10 0l48 -48q0 -1 2 -2.5t2 -2.5q2 -6 -2 -9q-6 -5 -3 -13q3 -10 14 -12q8 -2 11 4q6 4 11 1l2 -2q1 -2 2 -3l50 -50q3 -3 2 -8q0 -1 -5 -6q-138 -138 -206 -207q-2 -2 -6 -2t-5 2l-55 55q-4 4 0 9l3 3l2 1q12 12 0 23
q-8 10 -19 2q-1 -1 -1 -2q-1 -2 -1 -3q-4 -4 -9 -3q-2 1 -5 4l-50 50q-4 4 -2 9zM228 474l-57 -172l101 156q-20 8 -44 16zM295 466l-106 -165l142 142q-6 4 -18 11.5t-18 11.5zM156 247l41 -41q6 5 13 6q15 3 26 -8q7 -6 9 -17q2 -15 -8 -26q15 -14 43 -42l199 198l-44 44
q-12 -8 -26 -1q-16 8 -19 24q-3 11 3 19l-40 40q-33 -32 -98.5 -98t-98.5 -98zM336 383q5 2 8 -1l75 -75q4 -4 1 -9l-4 -4q-54 -55 -109 -109q-2 -3 -5 -5q-6 0 -8 2l-75 75q-3 3 -1 8q2 4 4 5l109 109q4 4 5 4zM236 262q42 -42 64 -63q68 68 102 103l-63 63
q-52 -51 -103 -103z" />
    <glyph glyph-name="h" unicode="h"
d="M277 599q-69 -5 -127 -39q-58 -33 -97 -89q-40 -56 -51 -128q-7 -49 2 -100q14 -70 58 -128q44 -54 98 -81q45 -24 102 -32q50 -6 97 4q69 13 127 59q57 44 86 111q34 72 26 153q-6 55 -30 104q-29 58 -79 99q-54 45 -122 60q-42 10 -90 7zM236 475q17 14 48 18
q18 1 38 -2q20 -5 31 -14q10 -6 19 -21t12 -33q2 -13 0 -40q8 -13 6 -34q-3 -20 -18 -30q-7 -27 -26 -50v-3q17 -4 39 -14q29 -14 54 -33q21 -16 32 -35q8 -14 8 -31q0 -1 -0.5 -4.5t-1.5 -5.5q-1 -4 -7 -4h-349q-8 0 -8 8q0 13 1 19q3 14 15 30q16 20 43 37q21 13 40 21
q16 8 33 12q1 1 1 3q-20 25 -27 50q-14 9 -17 28q-4 21 6 36q-3 31 3 53q7 25 25 39zM248 465q-15 -10 -21 -29q-8 -22 -4 -54q0 -4 -1 -6q-7 -8 -5 -24q2 -13 8 -18l8 -8q6 -26 27 -49q2 -4 1 -6q0 -5 -2 -13q-2 -5 -5 -5q-18 -5 -33 -12q-35 -14 -60 -35q-18 -14 -26 -27
q-7 -12 -7 -25h335q1 13 -8 26q-10 14 -22 24q-25 21 -57 35q-24 10 -36 13q-3 0 -7 4l-3 12v6q0 1 2 3t2 3q18 22 24 46q1 4 6 6q8 5 10 18q3 16 -4 26q-2 2 -2 7q3 21 0 43q-6 21 -15 30q-9 12 -25 17t-40 5q-23 -2 -40 -13z" />
    <glyph glyph-name="i" unicode="i"
d="M293 -1h12q41 2 78 12q63 18 113 62q51 45 78 106q35 77 22 165q-9 58 -38 106q-32 57 -85 93q-52 38 -118 51q-54 10 -103 1q-63 -9 -119 -46q-61 -39 -96 -104q-33 -59 -37 -124q-6 -77 26 -147q29 -62 81 -105q49 -41 106 -57q37 -11 80 -13zM220 440l18 30q4 8 10 2
l101 -57q5 -3 3 -8q0 -4 -2 -8h100q8 0 8 -8v-75h3.5t3.5 -1q5 -2 5 -7v-59q0 -7 -6 -7h-6v-76q0 -4 -4 -6q-1 -1 -7 -1h-284q-8 -2 -8 7v225q0 8 8 8h22q6 26 10 39q0 8 8 6q3 0 8.5 -2t8.5 -2zM235 436q14 -4 40.5 -11t40.5 -11q4 0 6 -6q0 -2 -0.5 -5t-0.5 -4h13q0 1 1 3
t1 3l-89 51q-2 -4 -6 -10t-6 -10zM200 399h106v2l-99 27q-4 -20 -7 -29zM443 384h-273v-210h273v68h-84q-7 0 -7 7v60q0 7 7 7h84v68zM367 257h88v44h-88v-44z" />
    <glyph glyph-name="j" unicode="j"
 />
    <glyph glyph-name="k" unicode="k"
 />
    <glyph glyph-name="l" unicode="l"
 />
    <glyph glyph-name="m" unicode="m"
 />
    <glyph glyph-name="n" unicode="n"
 />
    <glyph glyph-name="o" unicode="o"
 />
    <glyph glyph-name="p" unicode="p"
 />
    <glyph glyph-name="q" unicode="q"
 />
    <glyph glyph-name="r" unicode="r"
 />
    <glyph glyph-name="s" unicode="s"
 />
    <glyph glyph-name="t" unicode="t"
 />
    <glyph glyph-name="u" unicode="u"
 />
    <glyph glyph-name="v" unicode="v"
 />
    <glyph glyph-name="w" unicode="w"
 />
    <glyph glyph-name="x" unicode="x"
 />
    <glyph glyph-name="y" unicode="y"
 />
    <glyph glyph-name="z" unicode="z"
 />
    <glyph glyph-name="braceleft" unicode="{"
d="M599 360v1q0 4 -4 8l-84 84q-1 1 -2 3t-2 3q-7 7 -15 2l-5 -5q-8 -6 -20 -3q-11 3 -19 14q-5 9 -4 18q2 8 6 11q4 4 4 10t-4 9q-3 2 -15 14l-68 68q-8 8 -16 0q-230 -230 -345 -346q-7 -5 -3 -12q1 -2 5 -6l85 -85q3 -5 11 -3q5 2 7 8l2 3q9 8 21 6q11 -2 18 -12
q6 -10 2 -22q-3 -11 -12 -17q-8 -5 -4 -14q1 -3 5 -7l84 -84q4 -4 7 -5q7 -3 12 2l350 350q1 1 2 4zM219 433q47 46 140 139q35 -33 68 -68q-7 -12 -6 -27q1 -17 15 -31q10 -11 26 -16q18 -4 35 5q36 -38 74 -74l-333 -333l-73 73q22 26 9 56q-7 16 -25 24q-14 6 -29 3
q-14 -4 -21 -10l-69 69l138 138q34 34 51 52zM332 470l-5 -3q-31 -31 -94.5 -95t-94.5 -95q-4 -4 -3 -9q0 -4 4 -8l123 -123q8 -8 17 0l186 186q4 4 5 7q3 7 -2 12q-83 83 -124 125q-5 5 -12 3zM162 269l173 173l108 -108l-173 -173z" />
    <glyph glyph-name="bar" unicode="|"
d="M600 40v436q-2 7 -7 10q-4 2 -13 2h-93q-3 0 -4 1q-2 2 -4 6l-45 66q-5 7 -8 9q-4 2 -8 2h-232q-8 0 -12 -1q-2 -1 -7 -6l-49 -72q-3 -6 -6 -5h-91q-9 0 -13 -2q-8 -3 -8 -13v-430q0 -7 4 -10q2 -3 8 -5h576q4 2 7 4t5 8zM187 543h9h206h9q2 -1 4 -5q4 -6 22 -32t27 -41
q4 -6 13 -6h85h9q1 -11 1 -32v-32v-316v-10.5t-1 -11.5h-18h-515h-9v27v373v2h93q7 0 12 7l49 72q1 0 2 2t2 3zM288 385q-32 -3 -57 -21q-21 -12 -36 -38q-18 -28 -18 -64q-2 -30 14 -58q16 -31 43 -47q23 -16 54 -19q34 -4 67 11q44 21 62 67q13 31 7 68q-6 31 -24 54
q-19 25 -51 38q-26 12 -61 9zM291 357q32 3 59 -13t39 -43q13 -30 5 -63q-6 -29 -29 -48q-21 -18 -49 -23q-33 -6 -63 11q-24 15 -36 38q-16 28 -10 62q5 28 24 49q25 27 60 30z" />
    <glyph glyph-name="braceright" unicode="}"
d="M149 598q-3 -2 -4 -7q-17 -50 -22 -64q-22 -68 -40 -122q-24 -75 -56 -169q-2 -6 -2 -8q-2 -6 2 -10l81 -81q8 -8 16 1q1 1 2 3.5t2 3.5q5 4 14 4q14 2 21 -11q9 -15 -4 -32q-1 -1 -3.5 -2.5t-3.5 -3.5q-8 -8 1 -14q40 -42 82 -82q6 -6 11 -3q3 1 7 5l73 73l36 36
l207 207q5 4 5 6q4 7 -2 13l-77 77l-5 6q-5 5 -12 2q-2 -1 -4 -3.5t-4 -3.5q-9 -4 -17 -1q-11 4 -18 16q-6 11 0 20l3 3t3 4q4 9 -2 13l-6 6l-71 71q-7 5 -14 1q-8 -8 -10 -9q-1 0 -2 1q-2 2 -3 2q-30 18 -65 40q-8 5 -15 -2l-9 -15q-2 0 -6 2q-13 5 -39 14t-39 14
q-5 3 -11 -1zM162 575q1 0 3 -0.5t3 -0.5l58 -22q2 0 6 -2l-4 -6q-50 -77 -150 -233q-2 -2 -6 -8q0 1 0.5 3.5t1.5 3.5l36 108q8 26 26 78.5t26 78.5zM244 530l21 32q1 0 2 -1q7 -4 20.5 -12.5t20.5 -12.5l15 -9l-36 -36l-170 -170q-17 -17 -21 -20l7 10zM342 516l12 12
q1 0 1 -1q9 -8 25 -24.5t25 -24.5q8 -8 12 -13l-2 -4q-6 -13 -3 -22q2 -17 14 -28q10 -12 26 -15q15 -2 26 4h1q1 1 2 1q1 -1 2.5 -2t2.5 -2l60 -60q0 -1 1.5 -2t1.5 -2l-282 -282q-8 -9 -24 -25l-13 13q-8 8 -25 24.5t-25 24.5q0 1 -2 2.5t-2 2.5q1 2 3 4q11 17 8 36
q-1 12 -10 22q-9 12 -26 15q-19 3 -34 -7l-3 -2l-4 4l-58 58q0 1 -0.5 1t-0.5 1l14 14zM330 434q-4 -2 -6 -4l-170 -170l-2.5 -2.5t-2.5 -3t-1 -3.5q-2 -7 3 -10l111 -111q4 -6 8 -6q7 -2 10 3l171 170q6 6 6 9q2 7 -3 10l-114 114q-4 6 -10 4zM325 401q1 1 4 3.5t4 3.5
l12 -13q37 -36 73 -73q2 -2 7 -6.5t7 -6.5q0 -1 -2 -2.5t-2 -2.5q-51 -50 -151 -150l-5 -5q0 1 -2 2.5t-2 2.5l-90 90l-5 5q8 8 13 12q24 26 50 50q60 60 89 90z" />
    <glyph glyph-name="exclamdown" unicode="&#xa1;"
d="M279 599q-64 -5 -122 -35q-49 -26 -85 -68q-43 -51 -61 -112q-17 -58 -11 -116q8 -69 43 -127q34 -53 83 -87q40 -28 87 -42q44 -14 86 -14q73 0 140 36q57 30 97 81q43 57 56 121q18 86 -12 167q-20 52 -56 94q-41 47 -98 74q-71 33 -147 28zM280 570q73 5 138 -27
q56 -27 96 -78q29 -38 45 -88q14 -52 10 -101q-6 -68 -44 -126q-33 -52 -92 -87q-68 -38 -143 -35q-53 2 -102 23q-56 26 -96 72q-43 50 -58 116q-9 39 -6 82q4 60 36 115q30 52 81 87q61 42 135 47zM291 476q-5 -3 -6 -9q-1 -2 -1 -7v-146h-150q-8 -2 -12 -7q-2 -3 -2 -10
q1 -9 11 -12h7h146v-150q0 -6 6 -12q7 -4 14 -1q6 2 8 9q1 3 1 8v146h150q14 0 14 15q0 9 -9 13q-3 1 -8 1h-147v150q0 6 -6 11q-8 6 -16 1z" />
    <glyph glyph-name="cent" unicode="&#xa2;"
d="M174 483q-51 -37 -77 -95q-26 -62 -17 -126l-61 61q-4 4 -9.5 3t-7.5 -5q-5 -7 1 -13l82 -82q1 0 2.5 -1.5t3.5 -2.5q7 -4 12 3l83 83q3 4 3 10q-2 6 -8 8q-7 2 -10 -3l-68 -68q-12 60 11 117q23 60 76 96q46 31 103 36q42 3 83 -11q58 -20 97 -68q6 -8 13 -3q8 4 6 12
q-2 4 -5 7q-26 33 -63 54q-63 36 -133 30q-64 -5 -117 -42zM501 380q-1 0 -2.5 -2t-2.5 -2l-79 -79q-1 -1 -2 -2.5t-2 -2.5q-3 -7 2 -12q2 -4 7 -4t8 4q12 11 34 33.5t34 33.5q5 -27 2 -61q-5 -57 -40 -103q-32 -44 -82 -67q-71 -31 -143 -10q-64 18 -107 72q-6 8 -14 2
q-11 -7 -3 -15q40 -51 100 -74q71 -26 144 -6q55 16 94 53q38 35 58 84q22 56 14 119q20 -21 61 -62q4 -4 11 -2t7 9q2 5 -3 8q-56 56 -83 84q-6 6 -13 2z" />
    <glyph glyph-name="sterling" unicode="&#xa3;"
d="M276 599q-67 -4 -127 -39q-57 -33 -95 -86q-38 -51 -50 -115q-10 -50 -4 -95q8 -66 42 -121q31 -52 85 -90q40 -28 89 -42q45 -14 91 -12q73 3 137 38q54 30 92 80q43 55 56 122q18 86 -15 171q-19 47 -55 90q-43 46 -99 72q-69 32 -147 27zM277 570q78 6 145 -29
q57 -29 95 -81q31 -43 45 -96q20 -88 -13 -168q-25 -59 -71 -99q-49 -45 -112 -60q-46 -12 -91 -8q-55 5 -103 30q-56 29 -93 80q-40 53 -49 120q-8 49 3 98q12 58 51 110q34 42 79 68q53 30 114 35zM247 460q-20 -8 -41 -27l12 -17q1 -4 5 -6q3 -3 8 -1l9 6q15 10 32 15
q12 3 26 3q23 -2 37 -16q12 -14 12 -30q0 -18 -7 -31q-6 -11 -21 -24l-24 -18q-13 -11 -21 -22q-4 -8 -4 -20l3 -41h31q0 5 1.5 16.5t2.5 17.5q0 6 2 9q1 5 7 11q8 9 28 23q9 6 18 15q23 23 26 53q2 24 -5 43q-11 24 -33 37q-27 16 -62 13q-19 0 -42 -9zM281 192
q-12 -2 -21 -14q-6 -13 -3 -27q3 -10 11 -16q11 -8 25 -5q14 2 21 14q7 11 4 25t-16 20q-9 5 -21 3z" />
    <glyph glyph-name="section" unicode="&#xa7;"
d="M140 577q-42 -20 -74 -53q-30 -33 -46 -73q-24 -61 -15 -126q11 -65 54 -118q43 -49 103 -70q69 -23 139 -5q52 13 96 51q89 -90 179 -179q4 -6 13 -6q9 2 11 12q2 8 -4 14l-76 76l-103 103l12 15q32 41 43 94q15 70 -11 137q-25 62 -75 100q-55 43 -123 49
q-65 6 -123 -21zM223 570q45 4 91 -13q63 -24 97 -76q20 -28 29 -59q22 -73 -7 -141q-22 -54 -73 -91q-51 -35 -114 -37q-64 -3 -122 34q-52 35 -77 94q-20 47 -15 99q5 64 47 116q42 50 104 67q17 5 40 7z" />
    <glyph glyph-name="ordfeminine" unicode="&#xaa;"
d="M279 599q-59 -5 -109 -28q-54 -26 -96 -72q-43 -47 -63 -112q-15 -45 -13 -98q3 -74 37 -134q31 -58 82 -95q41 -31 88 -46q42 -14 89 -16q74 0 140 34q58 29 98 80q43 54 58 120q20 87 -11 171q-17 49 -56 95q-44 48 -99 73q-70 33 -145 28zM280 570q74 5 140 -29
q58 -29 96 -81q32 -41 44 -92q22 -81 -8 -164q-22 -61 -73 -107q-48 -43 -111 -60q-39 -11 -80 -9q-54 2 -103 24q-54 26 -91 68q-42 46 -59 110q-9 36 -9 73q2 63 29 118q30 58 79 95q65 49 146 54zM188 405q-11 -1 -20 -9t-11 -19q-3 -13 3 -24q6 -14 20 -19q15 -6 31 2
q9 5 16 17q6 13 1 27q-5 13 -15 20q-13 6 -25 5zM397 405q-11 -1 -21 -11t-10 -22q-2 -14 6 -24q8 -12 21 -15q14 -5 27 3q9 4 16 16q7 13 2 27q-5 16 -19 22q-10 6 -22 4zM196 238q-10 -3 -12 -13q0 -7 3 -11q11 -27 37 -48q25 -19 58 -24q34 -5 64 9q46 21 65 68
q1 6 -2 13q-5 5 -10 6q-8 2 -14 -6l-2 -5q-7 -16 -16 -26q-21 -24 -52 -30t-59 9q-32 16 -44 48q-3 12 -16 10z" />
    <glyph glyph-name="paragraph" unicode="&#xb6;"
d="M313 592l282 -571q2 -5 0 -11q-4 -9 -12 -9q-2 -1 -9 1q-42 9 -126 26.5t-126 26.5q-7 2 -10 9q-1 3 -1 8q-2 24 -5.5 69.5t-4.5 67.5q0 14 -1 21l-3 -41q-6 -78 -8 -116q0 -7 -2 -10q-3 -6 -10 -8l-256 -54q-5 -3 -13 3q-4 4 -4 11q0 1 5 14l278 563q3 8 13 8q8 0 13 -8
zM339 81q32 -7 105 -22.5t112 -23.5q-7 13 -20.5 41t-20.5 41q-36 72 -107.5 218t-107.5 218q-86 -172 -256 -518q32 7 105 22.5t112 23.5q3 53 10.5 162t11.5 166l2 8q4 9 12 9q7 0 10 -1q9 -4 9 -12q6 -103 23 -332z" />
    <glyph glyph-name="ordmasculine" unicode="&#xba;"
d="M542 600q-50 -15 -150 -46t-150 -46q-25 -9 -25 -32v-350q-41 13 -70 15q-23 2 -42 -1q-20 -3 -37 -9q-26 -9 -41 -25q-11 -11 -13 -29q-2 -17 6 -31q6 -11 21 -22q17 -10 42 -17q55 -14 107 4q27 11 40 24q12 12 15 27q1 6 1 20v243q6 1 16 4t16 5q47 12 140.5 38
t140.5 38v-190q-58 26 -122 5q-31 -10 -45 -24q-12 -10 -15 -24q-4 -12 -1 -28q3 -13 11 -26q11 -11 20 -16q18 -9 37 -12q15 -2 46 -2q22 2 40 7q29 9 44 26q12 15 13 32v17v370v23q-2 22 -21 30q-11 5 -24 2zM251 481q36 11 139 42.5t159 49.5q10 2 10 -8v-125
q-58 -15 -163.5 -44t-149.5 -41v119q-2 5 5 7zM443 197q28 9 57 8q24 -2 40 -8q7 -2 19 -8v-26q-2 -10 -6 -17q-9 -10 -22 -15q-21 -9 -50 -9t-48 5q-15 5 -23 14q-7 10 -7 24q1 9 11 17q11 10 29 15zM89 107q12 4 36 6q14 1 40 -3q23 -4 52 -14v-23q0 -5 -2 -11
q-6 -10 -16 -15q-18 -11 -46 -15q-29 -4 -61 2q-22 7 -30 11q-11 6 -16 14q-8 11 -1 23q5 8 13 13q15 9 31 12z" />
    <glyph glyph-name="divide" unicode="&#xf7;"
d="M3 444v-430q0 -6 4 -10q7 -5 10 -3q362 0 542 -2q7 0 11 7q4 3 4 10v143h13q10 3 10 14v112q0 9 -7 12q-3 2 -16 2v140q0 7 -2 10q-2 8 -10 8q-3 1 -8 1h-184q1 2 2.5 7t2.5 7q2 8 -3 14q-1 1 -3.5 2.5t-3.5 2.5q-35 20 -99.5 56.5t-82.5 47.5q-3 3 -7 5q-9 2 -15 -3
q-2 -2 -4 -6l-33 -55q-5 2 -15 4t-15 4q-9 2 -14 -5q-1 -1 -4 -10l-18 -71h-39q-5 0 -10 -3q-6 -3 -6 -11zM304 488l-151 40q7 13 23 39l168 -97l-3 -12h-25q0 2 0.5 6.5t0.5 7.5q2 9 -6 13q-1 1 -7 3zM101 513q31 -9 93.5 -25t93.5 -25v-5h-201q10 36 14 55zM31 429h515
v-130h-159q-13 0 -13 -14v-112q0 -10 8 -13q3 -1 9 -1h155v-130h-515v400zM402 271h167v-84h-167v84z" />
    <glyph glyph-name="endash" unicode="&#x2013;"
d="M600 300v1q0 9 -8 12q-3 2 -10 2h-70q-3 59 -39 109t-93 73q-31 13 -65 15v70q0 7 -2 10q-3 8 -13 8q-5 0 -9.5 -4t-4.5 -10v-74q-54 -3 -100 -32q-44 -29 -72 -77q-23 -41 -26 -88h-74q-14 -2 -14 -16q2 -13 14 -13h74q3 -37 16 -68q23 -55 73 -91q48 -34 109 -39v-70
q0 -6 1 -8q3 -10 13 -10q11 0 14 10q1 3 1 9v69q48 3 92 28q41 24 69 65q33 49 36 105h75q5 0 9 4.5t4 9.5zM286 484q38 2 70 -8q64 -21 99 -76q18 -27 26 -64q11 -58 -13 -111q-16 -39 -52 -68q-43 -33 -93 -39q-63 -8 -118 25q-55 34 -77 94q-14 37 -11 81q4 43 28 82
q28 41 67 61q34 20 74 23zM288 416q-40 -5 -70 -33q-23 -24 -30 -54q-9 -34 3 -67q10 -30 34 -50q23 -20 53 -26q37 -6 69 8q33 14 51 43t18 63q2 33 -18 64q-18 26 -43 39q-30 16 -67 13zM290 387q32 5 60 -15q27 -18 35 -51q9 -33 -8 -63q-13 -24 -38 -36q-33 -17 -69 -4
q-30 11 -45 37q-17 30 -11 62q6 31 31 51q21 16 45 19z" />
    <glyph glyph-name="bullet" unicode="&#x2022;"
d="M271 0h59q9 2 13 5q14 8 16 24v12v55q0 7 6 10q1 1 7 3q12 3 24 3q1 0 2.5 -1.5t2.5 -1.5q10 -12 22 -22l23 -23q17 -16 37 -4q3 2 7.5 6.5t6.5 5.5l21 21l7 7t8 10q7 14 1 28q-3 6 -8 11l-43 43q-7 5 -3 12t16 37q2 5 8 7h8h55q14 0 23 9q10 10 10 24v48q0 9 -2 14
q-7 22 -30 22h-56h-9q-6 1 -9 8l-9 21q-2 4 -2 7q-1 6 3 10q4 3 11.5 11t11.5 11q5 6 11 11q1 1 4.5 5t5.5 7q10 16 -1 34q-3 4 -9 10q-18 18 -28 27q-8 8 -10 9q-15 10 -31 2q-6 -3 -15 -12l-32 -32q-5 -5 -10 -4q-3 0 -9 2q-3 2 -8 4t-8 4q-8 2 -10 9v9v45v9q-3 19 -19 25
q-6 3 -15 3h-49q-8 0 -15 -3q-13 -7 -18 -21q-1 -4 -1 -13v-49q0 -7 -5 -10q-2 -1 -4.5 -2t-3.5 -1q-10 -5 -30 -13q-5 -2 -10 0q-1 0 -7 6l-24 24q-10 10 -16 13q-17 8 -31 -1q-5 -3 -13 -11l-30 -30q-9 -9 -9 -21q-2 -14 8 -25q13 -12 37 -36q7 -5 3 -14q-4 -8 -7 -17
l-3 -6q-5 -5 -10 -5h-48q-8 0 -12 -1q-11 -2 -19 -10.5t-8 -19.5v-48q0 -8 1 -12q3 -17 19 -23q6 -3 14 -3h52q8 0 11 -7q3 -9 11 -27q2 -6 2 -9q0 -5 -4 -8l-33 -33q-12 -12 -14 -16q-8 -16 2 -33q1 -2 9 -10q22 -22 33 -32q9 -9 22 -9t23 10l21 21q11 9 20 20q5 5 11 3
q3 0 7 -2q18 -8 27 -11q6 -1 8 -8v-9v-50q0 -10 2 -15q3 -12 15 -19q4 -2 12 -4zM273 571q2 1 7 1h45q3 0 5 -2q1 -1 1 -4v-52q0 -9 1 -14q4 -14 18 -23q9 -5 11 -5q8 -4 17 -7q26 -13 45 8q13 12 39 38q2 2 3 1q2 0 4 -2q24 -24 36 -35q2 -3 -2 -7l-31 -31q-10 -10 -12 -14
q-12 -18 -2 -38q0 -1 3 -7t4 -10q4 -10 7 -14q13 -18 33 -18h62q2 0 4 -2v-8v-43q0 -4 -1 -5t-4 -1h-58q-24 0 -36 -20q-2 -3 -4 -9q-1 -4 -6 -14.5t-7 -16.5q-11 -21 4 -42l6 -6q28 -28 42 -41q1 -3 0 -6l-31 -31l-6 -6q-3 -2 -6 1l-46 46q-4 4 -9 6t-23 2q-9 -1 -27 -5
q-20 -6 -27 -28q-3 -7 -1 -17v-57q0 -4 -4 -4h-48h-6q-2 1 -2 5v60q0 22 -18 33q-6 5 -13 6l-21 9q-2 0 -6 2t-6 2q-22 5 -37 -10l-26 -26l-7 -7t-8 -7q-1 -3 -4 -3q-2 0 -5 3l-32 32q-3 3 -4 5q0 1 3 4q26 26 39 40q17 14 12 39q0 2 -5 11q-1 3 -3.5 9t-3.5 9q-4 10 -7 14
q-11 18 -33 18h-46h-8q-3 0 -3 4v51q0 2 1 3t4 1h53q12 0 23 7.5t15 19.5q1 3 4 9t4 9q10 19 -3 39q-2 3 -5.5 7t-4.5 5q-10 9 -30 29q-3 3 -3 4q0 2 2 4l23 24q5 4 13 12q1 1 3 1t3 -2l22 -21q2 -3 6.5 -7t6.5 -7q15 -13 36 -10q2 1 7 3t7 2l29 12q26 10 26 38v52q0 4 2 5z
M285 427q-55 -5 -87 -49q-22 -27 -25 -61q-3 -36 12 -66q10 -24 33 -42q20 -17 48 -25q35 -8 69 3q32 9 53 34q21 24 28 50q11 37 -2 73q-12 30 -31 48q-22 20 -48 29q-21 8 -50 6zM286 398q29 3 53 -9q30 -16 43 -44q15 -28 8 -61q-6 -25 -24 -45q-23 -23 -54 -28
q-30 -6 -60 9q-26 14 -40 40q-16 28 -9 65q7 27 24 44q24 26 59 29z" />
    <glyph glyph-name="ellipsis" unicode="&#x2026;"
d="M304 489h-7q-56 -1 -112 -24q-35 -15 -61 -30q-33 -19 -62 -44q-27 -25 -41 -45q-16 -21 -21 -42q0 -5 1 -8q5 -23 24 -45q22 -29 51 -52q54 -41 111 -64q36 -14 72 -20q35 -6 71 -1q61 7 122 39q47 23 88 60q15 14 29 29q19 24 29 49q2 8 2 12l-3 9q-5 16 -20 37
q-12 17 -34 37q-38 36 -99 66q-75 36 -140 37zM218 446q55 18 103 13q34 -3 77 -18q64 -26 112 -65q25 -20 41 -40q16 -22 20 -35q-5 -18 -25 -41q-31 -35 -79 -65q-56 -36 -117 -49q-39 -7 -65 -5q-36 3 -80 18q-60 22 -110 62q-20 16 -29 25q-22 24 -34 46l-3 9
q6 19 24 40q17 20 42 40q25 19 57 37q36 19 66 28zM290 413q-32 -1 -60 -23q-23 -18 -35 -46q-12 -32 -6 -61q5 -35 29 -59q22 -25 57 -33q33 -8 66 5q31 12 51 40q18 26 20 58q3 30 -12 60q-17 30 -47 47q-29 15 -63 12zM292 385q31 3 57 -16q24 -16 32 -46q9 -32 -7 -63
q-16 -27 -44 -38q-34 -13 -67 3q-26 12 -39 40q-10 17 -8 37q0 27 16 49q23 31 60 34z" />
    <glyph glyph-name="trademark" unicode="&#x2122;"
d="M595 127v347q-2 7 -7 10q-3 2 -9 2h-124h-3v3v97q0 9 -6 12q-3 2 -15 2h-269q-9 0 -13 -7q-1 -2 -1 -13v-85q0 -6 -1 -9h-8h-113q-12 0 -15 -2q-4 -3 -6 -10v-347q2 -7 7 -10q3 -2 13 -2h113h9l1 -2v-97q0 -7 4 -11q6 -6 11 -6h274q8 0 13 8q2 3 2 14v84v10h9h119
q6 0 8 2q5 3 7 10zM176 572h7h233h8v-2v-75v-9h-73h-175v7v72v7zM33 451v7h8h518h8v-2v-300v-13h-96h-19v9v37v10q-2 10 -11 10q-3 1 -9 1h-270q-14 0 -14 -14v-43q0 -6 -1 -10h-103h-11v24v284zM72 388q-11 -2 -17 -11q-4 -7 -4 -17q0 -11 9 -18t18 -7q15 2 22 13q4 7 4 17
q-2 15 -16 21q-8 3 -16 2zM168 388q-8 -2 -14 -8q-7 -7 -7 -19t11 -21q13 -7 23 -3q11 3 16 13t2 18q-3 14 -15 18q-8 3 -16 2zM176 181h11h228h9v-8v-136v-8h-43h-203h-2v151v1z" />
    <glyph glyph-name="summation" unicode="&#x2211;"
d="M516 288v280q-2 7 -7 10q-7 5 -15 0q-8 -6 -12 -8q-29 -20 -53 -25q-18 -3 -35 0q-33 3 -57 19q-17 12 -36 18q-32 11 -65 9q-33 -1 -65 -19l-11 -6l-1 4q-1 4 -2 6q-5 12 -15 18q-18 9 -32 3q-13 -4 -21 -16q-3 -5 -5 -16v-554l3 -7q4 -4 9 -5h53q5 1 8 5q5 5 3 10v241
q0 1 2 3q3 2 23 14q32 17 55 17q37 0 65 -14q4 -2 11 -6.5t11 -6.5q39 -22 89 -20q17 0 38 7q24 9 49 25l8 5q3 3 5 9zM112 202v359q0 4 3.5 7t7.5 2q9 0 9 -10v-524v-8h-19q-1 29 -1 87v87zM200 554q18 8 37 9q32 0 58 -10q16 -5 28 -14q33 -21 79 -24q18 -2 35 3
q18 3 43 17l7 4v-29v-206q0 -6 -1 -7q-28 -18 -54 -25q-18 -4 -44 0q-35 5 -57 21q-37 25 -92 25q-29 -1 -61 -18l-18 -9v235v3q0 3 2 4q17 11 38 21z" />
    <glyph glyph-name="infinity" unicode="&#x221e;"
d="M279 600q-75 -5 -137 -44q-58 -35 -95 -92q-37 -54 -46 -123q-7 -47 2 -96q12 -65 51 -119q35 -50 87 -82q82 -49 173 -43q72 3 133 39q57 32 94 84q39 53 51 117q18 85 -15 169q-19 49 -54 88q-41 49 -100 75q-68 32 -144 27zM280 571q68 5 129 -23q59 -27 100 -77
q37 -46 51 -98q22 -82 -6 -164q-22 -61 -69 -105q-47 -45 -108 -63q-36 -12 -76 -12q-49 -1 -101 18q-50 20 -88 56q-47 44 -68 102q-14 36 -17 74q-3 58 14 108q18 56 62 102q36 37 88 61q42 18 89 21zM188 406q-21 -3 -30 -24q-5 -18 4 -32q8 -12 23 -17q14 -2 24 3
q11 4 18 17q6 14 1 29q-5 12 -17 20q-10 6 -23 4zM397 406q-12 -2 -19 -9q-12 -11 -12 -27q0 -10 5 -20q9 -14 26 -17q8 -1 20 2q15 8 19 19q7 13 1 28q-4 13 -16 20q-11 6 -24 4zM287 238q-38 -3 -66 -27q-25 -20 -36 -50q-3 -9 5 -16q7 -6 15 -1q5 2 7 7q9 23 28 39
q23 19 51 20q30 3 58 -15q25 -16 35 -43q0 -2 4 -6q6 -6 15 -3q12 5 8 18q-18 45 -59 65q-30 15 -65 12z" />
    <glyph glyph-name="notequal" unicode="&#x2260;"
d="M279 599q-58 -5 -110 -29q-51 -24 -90 -66q-42 -43 -64 -105q-19 -53 -17 -114q5 -76 42 -139q32 -53 81 -89q40 -29 91 -45q47 -14 94 -14q70 1 137 38q58 32 96 85q39 51 53 117q17 87 -13 167q-19 48 -53 90q-45 51 -105 78q-67 31 -142 26zM280 570q75 5 142 -29
q56 -28 96 -82q30 -43 42 -90q24 -86 -9 -167q-23 -60 -71 -104q-45 -42 -110 -61q-42 -11 -87 -9q-51 3 -100 25q-51 24 -90 68q-43 49 -58 112q-9 36 -8 70q0 58 26 112q28 58 78 98q66 52 149 57zM188 405q-10 -2 -17 -7q-11 -9 -14 -23q-2 -12 3 -23q6 -14 21 -19
q15 -3 26 1t18 16q9 16 3 32q-4 10 -16 19q-10 6 -24 4zM397 405q-26 -4 -30 -30q-3 -12 4 -26q8 -12 20 -16q16 -5 30 3q12 6 17 20q4 14 0 24q-3 12 -15 19q-12 8 -26 6zM292 249q-24 -1 -43 -19q-22 -20 -22 -53q0 -34 27 -55q26 -21 60 -13q29 6 45 32q17 28 6 61
q-4 13 -14 24q-25 26 -59 23zM293 220q17 3 30 -8q10 -6 15 -19q5 -15 1 -26q-3 -14 -16 -24q-11 -8 -26 -8q-26 0 -38 26q-6 12 -3 26q5 18 19 27q12 6 18 6z" />
    <glyph glyph-name="lessequal" unicode="&#x2264;"
d="M279 599q-87 -6 -158 -57q-48 -36 -80 -88q-35 -56 -41 -123q-5 -43 3 -85q11 -64 49 -118q36 -51 87 -83q75 -48 167 -46q72 3 133 36q57 29 99 84q41 55 55 124q16 89 -17 168q-19 48 -55 89q-43 47 -100 73q-67 31 -142 26zM280 570q76 6 147 -32q57 -31 93 -82
q31 -44 43 -97q18 -81 -13 -160q-24 -62 -76 -106q-50 -42 -110 -57q-47 -11 -91 -7q-49 5 -93 26q-54 25 -92 73q-44 53 -56 118q-9 50 -2 95q9 61 45 114q37 52 94 83q49 27 111 32zM261 408q-57 -22 -90 -73q-19 -30 -25 -61q-2 3 -26 46q-5 9 -15 7q-12 -2 -12 -14
q0 -1 3 -10q15 -26 45 -80q5 -11 19 -5q8 5 37 21t45 25q7 4 7 12q0 10 -8 13q-7 3 -13 0q-11 -7 -32 -18.5t-24 -12.5q6 44 34 76q20 24 50 40t66 18q37 1 73 -14q56 -26 79 -79q1 -1 2.5 -5t3.5 -6q12 -10 21 1q7 7 2 15q-4 12 -12 25q-29 49 -81 74q-34 16 -74 18
q-36 1 -75 -13z" />
    <glyph glyph-name="greaterequal" unicode="&#x2265;"
d="M13 10h574q9 0 12 8q1 3 1 8q0 16 -1 25q-4 25 -23 51q-15 19 -44 43q-31 23 -60 38q-15 8 -45 22q-3 1 -19 7t-25 8v3q30 38 43 80q0 1 1 2q10 6 19 22q7 15 9 33q3 28 -10 49q5 45 -3 80q-8 33 -27 56q-19 24 -50 35q-32 12 -68 10q-32 0 -61 -10q-26 -9 -47 -31
q-20 -22 -30 -54q-9 -36 -4 -86q-13 -18 -11 -43t11 -42q8 -13 19 -20q12 -43 43 -81v-3q-20 -5 -56 -21q-33 -13 -63 -33q-31 -20 -49 -37q-25 -23 -36 -43q-13 -24 -13 -47v-16q0 -13 13 -13zM250 556q30 9 63 6q38 -2 62 -18q23 -15 34 -42q12 -27 10 -69q0 -8 -2 -24
q0 -6 1 -8q1 -3 5 -9q7 -11 5 -28q-2 -16 -9 -28q-6 -8 -11 -11q-6 -2 -8 -9q-6 -28 -25 -57q-9 -13 -17 -22q-4 -4 -4 -10q2 -12 4 -20q2 -7 6 -10q2 -1 5.5 -2t5.5 -2q22 -5 49 -17q32 -14 66 -35q35 -24 53 -43q8 -8 20 -26q9 -16 9 -34h-545q0 16 10 34q11 20 33 39
q20 17 52 37q36 20 64 32q30 12 45 15q6 1 10 9q2 6 4 22q1 6 -3 10q-20 22 -33 51q-4 9 -10 29q0 3 -4 7q-1 1 -3.5 2.5t-3.5 2.5q-9 7 -13 21q-5 16 -2 31q2 10 7 17q3 5 3 10q-5 35 -1 63q5 35 25 58q17 18 43 28z" />
  </font>
</defs>
</svg>
